<svg width="165" height="57" viewBox="0 0 165 57" fill="none" xmlns="http://www.w3.org/2000/svg">
<g clip-path="url(#clip0)">
<path d="M6.72913 0.839844H158.268C161.964 0.839844 164.968 3.85264 164.968 7.55984V50.1198C164.968 53.827 161.964 56.8398 158.268 56.8398H6.72913C3.03279 56.8398 0.0288086 53.827 0.0288086 50.1198V7.55984C0.0288086 3.85264 3.03279 0.839844 6.72913 0.839844Z" fill="white"/>
<path d="M36.1338 27.563C36.1003 23.5534 39.4058 21.6046 39.551 21.515C37.6749 18.7822 34.7714 18.4014 33.7552 18.3678C31.3208 18.1102 28.9533 19.835 27.7138 19.835C26.4519 19.835 24.5311 18.4014 22.4763 18.435C19.8297 18.4798 17.3394 20.0142 15.9882 22.411C13.1852 27.283 15.2735 34.451 17.9648 38.3934C19.316 40.3198 20.8794 42.4814 22.9454 42.403C24.9555 42.3246 25.7148 41.115 28.1381 41.115C30.5502 41.115 31.2538 42.403 33.3532 42.3582C35.5196 42.3246 36.8709 40.4206 38.1774 38.4718C39.7297 36.2654 40.355 34.0814 40.3774 33.9694C40.3215 33.947 36.1785 32.3566 36.1338 27.563ZM32.1695 15.7806C33.2527 14.4254 33.9897 12.5774 33.7887 10.6958C32.2253 10.763 30.2599 11.7822 29.132 13.115C28.1381 14.291 27.2447 16.2062 27.4681 18.0094C29.2325 18.1438 31.0416 17.1134 32.1695 15.7806ZM65.3025 42.123H62.4884L60.9473 37.2622H55.5871L54.1242 42.123H51.3882L56.6926 25.5806H59.9758L65.3025 42.123ZM60.4895 35.2238L59.0936 30.9118C58.9484 30.4638 58.6692 29.4334 58.2672 27.7982H58.2114C58.0439 28.5038 57.787 29.5454 57.4297 30.9118L56.0561 35.2238H60.4895ZM78.9377 36.019C78.9377 38.0462 78.3905 39.6478 77.285 40.8238C76.3022 41.8766 75.0738 42.3918 73.6221 42.3918C72.0475 42.3918 70.9196 41.8318 70.2273 40.7006V46.9614H67.5807V34.115C67.5807 32.8382 67.5472 31.539 67.4801 30.195H69.8029L69.9481 32.0878H69.9928C70.875 30.6654 72.215 29.9486 74.0018 29.9486C75.4089 29.9486 76.5702 30.5086 77.5083 31.6174C78.4687 32.7374 78.9377 34.1934 78.9377 36.019ZM76.2464 36.1086C76.2464 34.9438 75.9896 33.9918 75.4647 33.2414C74.8952 32.4574 74.1246 32.0654 73.1643 32.0654C72.5166 32.0654 71.9247 32.2894 71.3887 32.715C70.8638 33.1518 70.5065 33.7118 70.3501 34.4174C70.2719 34.7422 70.2273 35.011 70.2273 35.2238V37.2174C70.2273 38.0798 70.4953 38.819 71.0202 39.4126C71.545 40.0062 72.2374 40.3086 73.0861 40.3086C74.08 40.3086 74.8505 39.9166 75.4089 39.155C75.9672 38.3822 76.2464 37.3742 76.2464 36.1086ZM92.6063 36.019C92.6063 38.0462 92.0592 39.6478 90.9536 40.8238C89.9709 41.8766 88.7425 42.3918 87.2908 42.3918C85.7162 42.3918 84.5883 41.8318 83.8959 40.7006V46.9614H81.2493V34.115C81.2493 32.8382 81.2158 31.539 81.1488 30.195H83.4716L83.6168 32.0878H83.6614C84.5436 30.6654 85.8837 29.9486 87.6704 29.9486C89.0775 29.9486 90.2389 30.5086 91.1769 31.6174C92.1373 32.7374 92.6063 34.1934 92.6063 36.019ZM89.9151 36.1086C89.9151 34.9438 89.6582 33.9918 89.1334 33.2414C88.5638 32.4574 87.7933 32.0654 86.8329 32.0654C86.1852 32.0654 85.5934 32.2894 85.0573 32.715C84.5325 33.1518 84.1863 33.7118 84.0188 34.4174C83.9406 34.7422 83.8959 35.011 83.8959 35.2238V37.2174C83.8959 38.0798 84.1639 38.819 84.6888 39.4126C85.2137 40.0062 85.906 40.3086 86.7547 40.3086C87.7486 40.3086 88.5303 39.9166 89.0775 39.155C89.647 38.3822 89.9151 37.3742 89.9151 36.1086ZM107.905 37.4862C107.905 38.8974 107.414 40.0398 106.443 40.9246C105.37 41.8878 103.874 42.3694 101.953 42.3694C100.178 42.3694 98.7595 42.0222 97.6874 41.339L98.3016 39.1326C99.463 39.8158 100.736 40.163 102.121 40.163C103.115 40.163 103.896 39.939 104.444 39.491C105.002 39.043 105.281 38.4382 105.281 37.6878C105.281 37.0158 105.047 36.4558 104.6 35.9966C104.142 35.5374 103.383 35.1118 102.322 34.7198C99.4072 33.6334 97.9666 32.0542 97.9666 29.9822C97.9666 28.627 98.4803 27.5182 99.4965 26.6446C100.513 25.7822 101.864 25.3454 103.55 25.3454C105.047 25.3454 106.297 25.603 107.291 26.1294L106.621 28.2798C105.683 27.7758 104.633 27.5182 103.45 27.5182C102.523 27.5182 101.786 27.7534 101.261 28.2014C100.825 28.6158 100.602 29.1086 100.602 29.7022C100.602 30.3518 100.859 30.9006 101.361 31.315C101.797 31.707 102.601 32.1326 103.762 32.5918C105.181 33.163 106.219 33.835 106.889 34.6078C107.57 35.3806 107.905 36.3438 107.905 37.4862ZM116.66 32.1886H113.746V37.979C113.746 39.4462 114.26 40.1854 115.287 40.1854C115.756 40.1854 116.147 40.1406 116.459 40.0622L116.538 42.0782C116.013 42.2686 115.332 42.3694 114.483 42.3694C113.433 42.3694 112.629 42.0446 112.037 41.4062C111.445 40.7678 111.155 39.6926 111.155 38.1918V32.1774H109.424V30.195H111.155V28.011L113.746 27.227V30.195H116.66V32.1886ZM129.771 36.0638C129.771 37.9006 129.246 39.4014 128.207 40.5774C127.113 41.787 125.661 42.3918 123.852 42.3918C122.11 42.3918 120.714 41.8094 119.676 40.6558C118.637 39.5022 118.123 38.035 118.123 36.2654C118.123 34.4174 118.659 32.9054 119.72 31.7294C120.792 30.5534 122.233 29.9598 124.042 29.9598C125.784 29.9598 127.191 30.5422 128.252 31.707C129.268 32.827 129.771 34.283 129.771 36.0638ZM127.035 36.1198C127.035 35.0222 126.8 34.0926 126.331 33.3086C125.773 32.3566 124.98 31.8862 123.953 31.8862C122.892 31.8862 122.077 32.3566 121.529 33.3086C121.049 34.0926 120.826 35.0446 120.826 36.1758C120.826 37.2734 121.06 38.2142 121.529 38.987C122.099 39.939 122.903 40.4094 123.93 40.4094C124.935 40.4094 125.728 39.9278 126.309 38.9646C126.789 38.1582 127.035 37.2174 127.035 36.1198ZM138.37 32.5246C138.113 32.4798 137.834 32.4574 137.532 32.4574C136.605 32.4574 135.879 32.8046 135.377 33.5102C134.941 34.1262 134.718 34.9214 134.718 35.8622V42.123H132.071V33.947C132.071 32.5694 132.049 31.315 131.993 30.195H134.294L134.394 32.4798H134.472C134.751 31.6958 135.187 31.0574 135.79 30.587C136.382 30.1614 137.018 29.9486 137.7 29.9486C137.945 29.9486 138.169 29.971 138.358 29.9934L138.37 32.5246ZM150.184 35.5934C150.184 36.0638 150.151 36.467 150.084 36.7918H142.155C142.189 37.9678 142.568 38.875 143.305 39.491C143.975 40.0398 144.835 40.3198 145.896 40.3198C147.069 40.3198 148.141 40.1294 149.101 39.7598L149.514 41.5966C148.387 42.0894 147.058 42.3358 145.528 42.3358C143.685 42.3358 142.233 41.787 141.184 40.7006C140.134 39.6142 139.609 38.147 139.609 36.3214C139.609 34.5294 140.1 33.0286 141.083 31.8302C142.111 30.5534 143.495 29.915 145.237 29.915C146.946 29.915 148.253 30.5534 149.124 31.8302C149.827 32.8606 150.184 34.1038 150.184 35.5934ZM147.661 34.9102C147.683 34.1262 147.504 33.443 147.147 32.8718C146.689 32.1326 145.986 31.763 145.048 31.763C144.188 31.763 143.484 32.1214 142.948 32.8382C142.513 33.4094 142.245 34.1038 142.166 34.899L147.661 34.9102Z" fill="black"/>
<path d="M59.2163 19.6671H57.8316L57.0722 17.2815H54.4368L53.7109 19.6671H52.3708L54.9728 11.536H56.5809L59.2163 19.6671ZM56.8377 16.2735L56.1565 14.1455C56.0895 13.9327 55.9555 13.4175 55.7433 12.6112H55.721C55.6317 12.9584 55.52 13.4624 55.3302 14.1455L54.6601 16.2735H56.8377ZM65.738 13.7983L63.5269 19.6671H62.265L60.1209 13.7983H61.5168L62.5107 16.9007C62.6782 17.4159 62.8233 17.9087 62.935 18.3791H62.9685C63.069 17.9535 63.2142 17.4607 63.3929 16.9007L64.3756 13.7983H65.738ZM70.4505 19.6671L70.35 18.9951H70.3165C69.9145 19.5327 69.345 19.8015 68.6079 19.8015C67.5582 19.8015 66.8212 19.0623 66.8212 18.0767C66.8212 16.6319 68.0719 15.8815 70.2384 15.8815V15.7695C70.2384 14.9967 69.8252 14.6159 69.0211 14.6159C68.4404 14.6159 67.9379 14.7615 67.4912 15.0527L67.2232 14.2015C67.7592 13.8655 68.4404 13.6975 69.2333 13.6975C70.7632 13.6975 71.5337 14.5039 71.5337 16.1279V18.2895C71.5337 18.8831 71.5561 19.3423 71.6231 19.6895L70.4505 19.6671ZM70.2719 16.7439C68.8313 16.7439 68.1054 17.0911 68.1054 17.9311C68.1054 18.5471 68.4739 18.8495 68.9988 18.8495C69.6577 18.8495 70.2719 18.3455 70.2719 17.6511V16.7439ZM74.4261 12.8352C73.9905 12.8352 73.6555 12.4992 73.6555 12.0512C73.6555 11.6032 74.0017 11.2784 74.4484 11.2784C74.8951 11.2784 75.2524 11.6032 75.2413 12.0512C75.2413 12.5216 74.9062 12.8352 74.4261 12.8352ZM73.8007 13.7983H75.0961V19.6559H73.8007V13.7983ZM77.4077 11.1104H78.7031V19.6559H77.4077V11.1104ZM84.2197 19.6671L84.1192 18.9951H84.0857C83.6837 19.5327 83.1141 19.8015 82.3771 19.8015C81.3274 19.8015 80.5903 19.0623 80.5903 18.0767C80.5903 16.6319 81.8411 15.8815 84.0075 15.8815V15.7695C84.0075 14.9967 83.5943 14.6159 82.7903 14.6159C82.2096 14.6159 81.7071 14.7615 81.2604 15.0527L80.9924 14.1903C81.5284 13.8543 82.2096 13.6863 83.0025 13.6863C84.5324 13.6863 85.3029 14.4927 85.3029 16.1167V18.2783C85.3029 18.8719 85.3252 19.3311 85.3811 19.6783H84.2197V19.6671ZM84.041 16.7439C82.6004 16.7439 81.8746 17.0911 81.8746 17.9311C81.8746 18.5471 82.2431 18.8495 82.7679 18.8495C83.4268 18.8495 84.041 18.3455 84.041 17.6511V16.7439ZM90.5738 19.8015C89.7474 19.8015 89.1332 19.4543 88.7312 18.7599H88.7089L88.6307 19.6671H87.5252C87.5587 19.1967 87.5698 18.6703 87.5698 18.0879V11.1104H88.8764V14.6607H88.8987C89.2896 14.0111 89.9038 13.6863 90.7637 13.6863C92.1707 13.6863 93.1534 14.8959 93.1534 16.6543C93.1534 18.4687 92.059 19.8015 90.5738 19.8015ZM90.3058 14.7055C89.5576 14.7055 88.8764 15.3551 88.8764 16.2623V17.2927C88.8764 18.0991 89.4906 18.7599 90.2835 18.7599C91.255 18.7599 91.8357 17.9647 91.8357 16.6991C91.8357 15.5119 91.2327 14.7055 90.3058 14.7055ZM95.0742 11.1104H96.3696V19.6559H95.0742V11.1104ZM103.438 17.0463H99.5411C99.5634 18.1551 100.3 18.7823 101.384 18.7823C101.964 18.7823 102.489 18.6815 102.958 18.5023L103.159 19.4095C102.612 19.6559 101.964 19.7679 101.205 19.7679C99.3736 19.7679 98.2903 18.6143 98.2903 16.8111C98.2903 15.0191 99.3959 13.6639 101.06 13.6639C102.545 13.6639 103.494 14.7727 103.494 16.4527C103.494 16.6879 103.483 16.8895 103.438 17.0463ZM102.255 16.1167C102.255 15.2095 101.797 14.5711 100.97 14.5711C100.222 14.5711 99.6416 15.2207 99.5522 16.1167H102.255ZM111.311 19.8015C109.603 19.8015 108.497 18.5247 108.497 16.7887C108.497 14.9743 109.625 13.6863 111.412 13.6863C113.098 13.6863 114.226 14.9071 114.226 16.6879C114.226 18.5135 113.065 19.8015 111.311 19.8015ZM111.367 14.6383C110.429 14.6383 109.826 15.5231 109.826 16.7439C109.826 17.9535 110.44 18.8271 111.356 18.8271C112.272 18.8271 112.886 17.8863 112.886 16.7103C112.875 15.5231 112.283 14.6383 111.367 14.6383ZM121.205 19.6671H119.91V16.2959C119.91 15.2543 119.508 14.7391 118.726 14.7391C117.956 14.7391 117.431 15.3999 117.431 16.1727V19.6559H116.136V15.4783C116.136 14.9631 116.124 14.4031 116.091 13.7983H117.23L117.286 14.7055H117.319C117.665 14.0783 118.38 13.6751 119.173 13.6751C120.401 13.6751 121.205 14.6159 121.205 16.1503V19.6671ZM129.704 14.7839H128.274V17.6287C128.274 18.3567 128.531 18.7151 129.034 18.7151C129.257 18.7151 129.458 18.6927 129.614 18.6591L129.648 19.6447C129.391 19.7455 129.056 19.7903 128.643 19.7903C127.615 19.7903 127.012 19.2191 127.012 17.7407V14.7839H126.164V13.8095H127.012V12.7344L128.285 12.3424V13.7983H129.715V14.7839H129.704ZM136.583 19.6671H135.287V16.3183C135.287 15.2655 134.885 14.7391 134.104 14.7391C133.433 14.7391 132.808 15.1983 132.808 16.1279V19.6559H131.513V11.1104H132.808V14.6271H132.83C133.244 13.9887 133.824 13.6751 134.584 13.6751C135.823 13.6751 136.583 14.6383 136.583 16.1727V19.6671ZM143.216 17.0463H139.319C139.341 18.1551 140.078 18.7823 141.161 18.7823C141.742 18.7823 142.267 18.6815 142.736 18.5023L142.937 19.4095C142.39 19.6559 141.742 19.7679 140.983 19.7679C139.151 19.7679 138.068 18.6143 138.068 16.8111C138.068 15.0191 139.173 13.6639 140.837 13.6639C142.323 13.6639 143.272 14.7727 143.272 16.4527C143.272 16.6879 143.261 16.8895 143.216 17.0463ZM142.032 16.1167C142.032 15.2095 141.574 14.5711 140.748 14.5711C140 14.5711 139.408 15.2207 139.33 16.1167H142.032Z" fill="black"/>
</g>
<defs>
<clipPath id="clip0">
<rect width="165" height="56" fill="white" transform="translate(0 0.839844)"/>
</clipPath>
</defs>
</svg>
