<svg width="172" height="57" viewBox="0 0 172 57" fill="none" xmlns="http://www.w3.org/2000/svg">
<g clip-path="url(#clip0)">
<path d="M172 49.2715C172 53.4506 168.596 56.8398 164.398 56.8398H7.60327C3.40482 56.8402 0 53.4509 0 49.2715V8.40755C0 4.22874 3.40482 0.839844 7.60327 0.839844H164.398C168.596 0.839844 172 4.22874 172 8.40755L172 49.2715Z" fill="#F2F3F7"/>
<path d="M12.9014 11.6211V49.5443L32.1143 30.5829L12.9014 11.6211Z" fill="url(#paint0_linear)"/>
<path d="M37.2745 25.4898L29.5189 21.0332L12.9014 11.4834V11.6213L32.1143 30.5831L37.2745 25.4898Z" fill="url(#paint1_linear)"/>
<path d="M12.9014 49.5444V49.6823L29.5189 40.1322L37.2742 35.6756L32.1143 30.583L12.9014 49.5444Z" fill="url(#paint2_linear)"/>
<path d="M37.2745 25.4897L32.1143 30.583L37.2741 35.6755L46.1374 30.5826L37.2745 25.4897Z" fill="url(#paint3_linear)"/>
<path d="M133.859 37.9961C133.137 37.9961 132.479 37.8635 131.882 37.5988C131.286 37.3337 130.785 36.926 130.381 36.3764H130.259C130.34 37.0204 130.381 37.6309 130.381 38.2076V42.7459H128.703V26.766H130.068L130.3 28.2756H130.381C130.812 27.6714 131.315 27.236 131.887 26.9675C132.46 26.6991 133.117 26.5649 133.858 26.5649C135.328 26.5649 136.462 27.0649 137.26 28.0644C138.059 29.0638 138.459 30.4662 138.459 32.2703C138.459 34.0817 138.052 35.4885 137.241 36.4923C136.429 37.495 135.302 37.9961 133.859 37.9961ZM133.616 27.9837C132.484 27.9837 131.665 28.296 131.159 28.9196C130.654 29.5434 130.394 30.5365 130.381 31.8984V32.2703C130.381 33.8203 130.64 34.9288 131.159 35.5966C131.679 36.2644 132.511 36.5974 133.656 36.5974C134.614 36.5974 135.364 36.2121 135.907 35.4406C136.449 34.6695 136.72 33.6061 136.72 32.2502C136.72 30.8756 136.449 29.8199 135.907 29.0855C135.364 28.3505 134.6 27.9837 133.616 27.9837ZM142.345 37.7946H140.667V22.137H142.345V37.7946ZM151.994 37.7946L151.66 36.2248H151.579C151.026 36.9163 150.475 37.3846 149.926 37.6286C149.377 37.8739 148.691 37.9961 147.869 37.9961C146.77 37.9961 145.909 37.7143 145.285 37.151C144.662 36.5877 144.35 35.7864 144.35 34.7461C144.35 32.5193 146.14 31.3518 149.719 31.2441L151.6 31.1835V30.4993C151.6 29.6338 151.412 28.9945 151.038 28.5825C150.665 28.1694 150.065 27.9633 149.244 27.9633C148.32 27.9633 147.275 28.2451 146.11 28.8084L145.594 27.5305C146.14 27.2353 146.738 27.004 147.389 26.8363C148.039 26.6686 148.691 26.5846 149.345 26.5846C150.666 26.5846 151.645 26.8762 152.282 27.4599C152.919 28.0436 153.237 28.9794 153.237 30.2677V37.7943H151.994V37.7946H151.994ZM148.202 36.6178C149.246 36.6178 150.067 36.3326 150.664 35.7626C151.26 35.1926 151.559 34.394 151.559 33.3671V32.371L149.88 32.441C148.545 32.4888 147.584 32.6943 146.993 33.0608C146.404 33.4263 146.109 33.995 146.109 34.7665C146.109 35.37 146.292 35.8299 146.66 36.1445C147.028 36.4601 147.541 36.6178 148.202 36.6178ZM154.211 26.766H156.01L158.437 33.0555C158.969 34.4914 159.3 35.5276 159.428 36.1652H159.509C159.597 35.8225 159.781 35.2377 160.06 34.4084C160.34 33.5796 161.255 31.0328 162.805 26.766H164.605L159.843 39.3245C159.371 40.5656 158.82 41.4462 158.189 41.967C157.559 42.4865 156.785 42.7459 155.87 42.7459C155.357 42.7459 154.852 42.689 154.353 42.5752V41.237C154.723 41.3173 155.138 41.3578 155.596 41.3578C156.749 41.3578 157.571 40.7139 158.063 39.4256L158.68 37.8561L154.211 26.766ZM102.77 27.7909C103.303 28.2297 104.415 29.1515 104.415 30.9057C104.415 32.6117 103.442 33.4207 102.468 34.1808C102.167 34.4803 101.819 34.8043 101.819 35.3124C101.819 35.8188 102.166 36.096 102.422 36.3038L103.257 36.9484C104.277 37.8023 105.203 38.5871 105.203 40.1793C105.203 42.3476 103.093 44.5382 99.1079 44.5382C95.7468 44.5382 94.1253 42.947 94.1253 41.239C94.1253 40.409 94.5406 39.2331 95.9099 38.4248C97.3458 37.5482 99.2939 37.4341 100.336 37.3632C100.011 36.9485 99.6409 36.51 99.6409 35.7961C99.6409 35.4045 99.7573 35.1735 99.8727 34.8954C99.6167 34.9188 99.3622 34.9419 99.1302 34.9419C96.6743 34.9419 95.2838 33.1194 95.2838 31.321C95.2838 30.2597 95.7711 29.0825 96.7665 28.23C98.088 27.1459 99.6638 26.9608 100.916 26.9608H105.69L104.206 27.7912H102.77V27.7909H102.77ZM101.124 38.0336C100.939 38.0095 100.822 38.0095 100.592 38.0095C100.383 38.0095 99.1298 38.0567 98.1576 38.3803C97.6478 38.5634 96.1641 39.117 96.1641 40.7557C96.1641 42.3928 97.7641 43.571 100.244 43.571C102.468 43.571 103.651 42.5076 103.651 41.0787C103.651 39.8999 102.886 39.2797 101.124 38.0336ZM101.796 33.6499C102.329 33.1187 102.375 32.3814 102.375 31.9657C102.375 30.3052 101.378 27.7216 99.4553 27.7216C98.852 27.7216 98.2037 28.0212 97.8327 28.4831C97.4393 28.9674 97.3223 29.5896 97.3223 30.1901C97.3223 31.7354 98.2262 34.2962 100.22 34.2962C100.8 34.2962 101.424 34.0194 101.796 33.6499ZM88.1792 37.6644C84.5006 37.6644 82.5338 34.8083 82.5338 32.2284C82.5338 29.211 85.0091 26.6328 88.5276 26.6328C91.9274 26.6328 94.0564 29.2803 94.0564 32.0677C94.0567 34.7842 91.9519 37.6644 88.1792 37.6644ZM91.0712 35.7991C91.6274 35.0614 91.7663 34.1406 91.7663 33.2416C91.7663 31.2143 90.7944 27.3458 87.925 27.3458C87.1616 27.3458 86.3983 27.6457 85.8431 28.1303C84.9405 28.9353 84.7778 29.9491 84.7778 30.9405C84.7778 33.2189 85.9117 36.9719 88.7122 36.9719C89.6144 36.9719 90.5402 36.5351 91.0712 35.7991ZM75.6377 37.6644C71.9584 37.6644 69.9912 34.8083 69.9912 32.2284C69.9912 29.211 72.4675 26.6328 75.985 26.6328C79.3858 26.6328 81.5144 29.2803 81.5144 32.0677C81.5148 34.7842 79.4097 37.6644 75.6377 37.6644ZM78.5303 35.7991C79.0855 35.0614 79.2248 34.1406 79.2248 33.2416C79.2248 31.2143 78.2522 27.3458 75.3827 27.3458C74.6197 27.3458 73.8557 27.6457 73.3008 28.1303C72.3983 28.9353 72.2365 29.9491 72.2365 30.9405C72.2365 33.2189 73.3698 36.9719 76.1707 36.9719C77.0732 36.9719 77.9984 36.5351 78.5303 35.7991ZM68.2237 37.3032L64.8965 38.0674C63.5467 38.2762 62.3375 38.46 61.0586 38.46C54.637 38.46 52.1953 33.7594 52.1953 30.0776C52.1953 25.5862 55.661 21.4194 61.594 21.4194C62.8506 21.4194 64.0593 21.6042 65.1525 21.9054C66.8971 22.3918 67.7113 22.9932 68.2234 23.341L66.2918 25.1702L65.478 25.3546L66.0594 24.4281C65.2688 23.6646 63.8252 22.2525 61.0812 22.2525C57.4053 22.2525 54.6364 25.0323 54.6364 29.0839C54.6364 33.4357 57.8008 37.5342 62.8712 37.5342C64.3616 37.5342 65.1276 37.2337 65.826 36.9551V33.2282L62.314 33.4133L64.1742 32.4166H69.1064L68.5022 32.9953C68.3381 33.1348 68.3156 33.1817 68.2691 33.3651C68.2449 33.574 68.2231 34.2461 68.2231 34.4773V37.3033H68.2237V37.3032Z" fill="black"/>
<path d="M110.123 36.6363C109.355 36.5667 109.194 36.4285 109.194 35.5244V22.4194C109.199 22.3695 109.202 22.3183 109.206 22.2701C109.3 21.4601 109.532 21.3212 110.254 20.9038H106.927L105.181 21.7376H106.96V21.7479L106.959 21.7396V36.0345C106.959 36.4968 106.867 36.567 106.331 37.2609H110.449L111.31 36.7528C110.915 36.7049 110.519 36.6825 110.123 36.6363ZM119.589 36.8492C119.336 36.9874 119.081 37.1491 118.828 37.2632C118.065 37.608 117.279 37.7004 116.585 37.7004C115.847 37.7004 114.691 37.6528 113.512 36.803C111.873 35.6523 111.157 33.6749 111.157 31.9508C111.157 28.3872 114.068 26.6397 116.447 26.6397C117.279 26.6397 118.135 26.8462 118.828 27.284C119.982 28.0414 120.282 29.0302 120.443 29.5593L115.015 31.7446L113.236 31.8825C113.813 34.8028 115.799 36.5031 117.995 36.5031C119.173 36.5031 120.028 36.0901 120.813 35.6998L119.589 36.8492ZM117.418 29.9958C117.856 29.8354 118.087 29.6969 118.087 29.3752C118.087 28.4561 117.048 27.3978 115.799 27.3978C114.874 27.3978 113.143 28.111 113.143 30.5939C113.143 30.9848 113.189 31.3985 113.213 31.8139L117.418 29.9958ZM121.819 26.797V28.3142H121.634V26.797H121.129V26.6396H122.323V26.797H121.819ZM123.897 28.3142V26.7829H123.889L123.419 28.3142H123.274L122.801 26.7829H122.795V28.3142H122.627V26.6397H122.915L123.343 27.9932H123.349L123.771 26.6397H124.063V28.3142H123.897Z" fill="black"/>
<path d="M56.8157 16.9106H55.6595C55.6595 16.7523 55.5499 16.3041 55.3306 15.5657H53.6617C53.4354 16.292 53.3221 16.7402 53.3221 16.9106H52.2349C52.2349 16.8172 52.516 16.05 53.0782 14.6095C53.6405 13.1689 53.9216 12.3753 53.9216 12.2294H55.2873C55.2873 12.3659 55.5418 13.1478 56.0513 14.5753C56.5608 16.0029 56.8157 16.7811 56.8157 16.9106ZM55.1467 14.8789C54.7348 13.6422 54.529 12.9734 54.529 12.8727H54.4711C54.4711 12.9661 54.2579 13.6348 53.8319 14.8789H55.1467ZM61.4738 16.9106H60.5816C60.5816 16.8122 60.2504 16.2934 59.5883 15.3539C58.8949 14.3638 58.4997 13.687 58.4036 13.3226H58.3457C58.4059 13.8474 58.4362 14.322 58.4362 14.7464C58.4362 15.3385 58.4531 16.0601 58.4867 16.9109H57.5979C57.6338 16.1679 57.652 15.3519 57.652 14.4626C57.652 13.5877 57.6339 12.8433 57.5979 12.2297H58.6706C58.6706 12.3569 58.9679 12.864 59.5627 13.7507C60.196 14.6925 60.5598 15.3315 60.6537 15.6672H60.7078C60.65 15.1327 60.621 14.6533 60.621 14.2289C60.621 13.5796 60.6042 12.9129 60.5706 12.2297H61.4738C61.4399 12.8242 61.4234 13.5686 61.4234 14.4626C61.423 15.3632 61.4398 16.1793 61.4738 16.9106ZM66.7093 14.408C66.7093 15.0888 66.4901 15.6832 66.0519 16.1913C65.6134 16.6997 64.9993 16.9535 64.2094 16.9535C63.853 16.9535 63.3617 16.939 62.7355 16.9102C62.7668 16.1863 62.7826 15.3699 62.7826 14.4619C62.7826 13.5897 62.7668 12.8453 62.7355 12.2291H63.3677C63.4713 12.2291 63.6253 12.2254 63.8301 12.2183C64.0346 12.2113 64.1684 12.2076 64.2309 12.2076C65.1002 12.2076 65.7304 12.4235 66.1222 12.855C66.5136 13.2864 66.7093 13.8038 66.7093 14.408ZM65.7233 14.5626C65.7233 14.1024 65.5885 13.7148 65.3188 13.3992C65.0491 13.0842 64.6371 12.9266 64.0833 12.9266C63.9797 12.9266 63.8378 12.9373 63.6569 12.959C63.6808 13.4386 63.6929 13.9394 63.6929 14.4619C63.6929 15.0349 63.705 15.6029 63.7288 16.1662C63.8834 16.1972 64.0406 16.2129 64.1983 16.2131C64.7161 16.2131 65.0995 16.0528 65.3487 15.7328C65.5979 15.4128 65.7233 15.0228 65.7233 14.5626ZM71.5373 16.9106H70.4679C70.1885 16.0621 69.9743 15.5383 69.825 15.3395C69.6757 15.1403 69.4349 15.0409 69.1026 15.0409C68.9627 15.0409 68.8292 15.0423 68.7018 15.0446C68.7018 15.6608 68.7125 16.2827 68.7344 16.9106H67.7303C67.7615 16.1866 67.7774 15.3703 67.7774 14.4622C67.7774 13.59 67.7616 12.8456 67.7303 12.2294H68.3551C68.4274 12.2294 68.5784 12.2257 68.8084 12.2187C69.0384 12.2116 69.2509 12.2079 69.446 12.2079C70.5513 12.2079 71.1042 12.5841 71.1042 13.3369C71.1042 13.9337 70.7887 14.3494 70.1579 14.5847V14.6386C70.401 14.7055 70.6142 14.8946 70.7971 15.2046C70.9797 15.5149 71.2266 16.0835 71.5373 16.9106ZM70.1827 13.6027C70.1827 13.1257 69.8744 12.8871 69.258 12.8871C69.0317 12.8871 68.8315 12.9038 68.6584 12.9373C68.685 13.3088 68.6981 13.7931 68.6981 14.3899C68.8306 14.3949 68.9426 14.3969 69.034 14.3969C69.7997 14.3973 70.1827 14.1325 70.1827 13.6027ZM76.7153 14.4836C76.7153 15.2193 76.4889 15.8295 76.036 16.3138C75.583 16.7978 75.0231 17.0401 74.3563 17.0401C73.7204 17.0401 73.1881 16.8178 72.7596 16.373C72.3309 15.9285 72.1167 15.3632 72.1167 14.6781C72.1167 13.9424 72.343 13.3322 72.796 12.8479C73.2486 12.3639 73.8085 12.1216 74.4756 12.1216C75.1116 12.1216 75.6436 12.3432 76.0723 12.7866C76.5011 13.2302 76.7153 13.7955 76.7153 14.4836ZM75.7186 14.5877C75.7186 14.0867 75.5897 13.6803 75.3322 13.3687C75.0743 13.0571 74.7565 12.9015 74.3785 12.9015C74.0267 12.9015 73.7281 13.0585 73.4826 13.3724C73.2372 13.6864 73.1137 14.083 73.1137 14.5626C73.1137 15.061 73.2432 15.4667 73.5021 15.7796C73.7611 16.0926 74.0782 16.2489 74.4542 16.2489C74.8056 16.2489 75.1045 16.0913 75.35 15.7759C75.5955 15.461 75.7186 15.0647 75.7186 14.5877ZM78.7579 16.9106H77.7356C77.7668 16.1675 77.7826 15.3515 77.7826 14.4622C77.7826 13.5873 77.7669 12.8429 77.7356 12.2294H78.7579C78.7266 12.8335 78.7108 13.5776 78.7108 14.4622C78.7108 15.3656 78.7266 16.1819 78.7579 16.9106ZM83.9937 14.408C83.9937 15.0888 83.7745 15.6832 83.3363 16.1913C82.8978 16.6997 82.2837 16.9535 81.4938 16.9535C81.1374 16.9535 80.6461 16.939 80.0199 16.9102C80.0512 16.1863 80.067 15.3699 80.067 14.4619C80.067 13.5897 80.0512 12.8453 80.0199 12.2291H80.6521C80.7557 12.2291 80.9097 12.2254 81.1145 12.2183C81.319 12.2113 81.4528 12.2076 81.5154 12.2076C82.3846 12.2076 83.0148 12.4235 83.4066 12.855C83.798 13.2864 83.9937 13.8038 83.9937 14.408ZM83.0077 14.5626C83.0077 14.1024 82.8729 13.7148 82.6032 13.3992C82.3335 13.0842 81.9216 12.9266 81.3677 12.9266C81.2641 12.9266 81.1222 12.9373 80.9413 12.959C80.9652 13.4386 80.9772 13.9394 80.9772 14.4619C80.9772 15.0349 80.9894 15.6029 81.0132 16.1662C81.1678 16.1972 81.325 16.2129 81.4827 16.2131C82.0005 16.2131 82.3839 16.0528 82.6331 15.7328C82.8823 15.4128 83.0077 15.0228 83.0077 14.5626ZM90.9399 16.9106H89.7838C89.7838 16.7523 89.6741 16.3041 89.4546 15.5657H87.7856C87.5593 16.292 87.4459 16.7402 87.4459 16.9106H86.3591C86.3591 16.8172 86.6402 16.05 87.2025 14.6095C87.7647 13.1689 88.0459 12.3753 88.0459 12.2294H89.4115C89.4115 12.3659 89.6664 13.1478 90.1755 14.5753C90.6847 16.0029 90.9399 16.7811 90.9399 16.9106ZM89.2709 14.8789C88.859 13.6422 88.6528 12.9734 88.6528 12.8727H88.595C88.595 12.9661 88.3821 13.6348 87.9561 14.8789H89.2709ZM95.1535 13.4551C95.1535 14.0281 94.9396 14.4512 94.5122 14.7243C94.0847 14.9974 93.5605 15.1343 92.939 15.1343C92.8257 15.1343 92.7453 15.1319 92.6969 15.1272C92.6969 15.5781 92.71 16.1722 92.7366 16.9106H91.7213C91.7526 16.2181 91.7684 15.4017 91.7684 14.4622C91.7684 13.5993 91.7527 12.855 91.7213 12.2294H92.3499C92.439 12.2294 92.6098 12.2257 92.8627 12.2187C93.1156 12.2116 93.3345 12.2079 93.5201 12.2079C93.9774 12.2079 94.3642 12.311 94.6796 12.5172C94.995 12.7234 95.1535 13.0357 95.1535 13.4551ZM94.2216 13.6529C94.2216 13.1401 93.8796 12.8834 93.1957 12.8834C93.0245 12.8834 92.8439 12.9014 92.6539 12.9373C92.6805 13.3905 92.6936 13.9032 92.6936 14.4763C92.7538 14.4813 92.8237 14.4833 92.9031 14.4833C93.7821 14.4836 94.2216 14.2068 94.2216 13.6529ZM99.4861 13.4551C99.4861 14.0281 99.2722 14.4512 98.8451 14.7243C98.4177 14.9974 97.8931 15.1343 97.2717 15.1343C97.1584 15.1343 97.078 15.1319 97.0296 15.1272C97.0296 15.5781 97.0427 16.1722 97.0692 16.9106H96.054C96.0853 16.2181 96.1011 15.4017 96.1011 14.4622C96.1011 13.5993 96.0853 12.855 96.054 12.2294H96.6825C96.7717 12.2294 96.9425 12.2257 97.1953 12.2187C97.4482 12.2116 97.6672 12.2079 97.8528 12.2079C98.3101 12.2079 98.6968 12.311 99.0123 12.5172C99.3277 12.7234 99.4861 13.0357 99.4861 13.4551ZM98.5543 13.6529C98.5543 13.1401 98.2123 12.8834 97.5283 12.8834C97.3571 12.8834 97.1765 12.9014 96.9865 12.9373C97.0131 13.3905 97.0262 13.9032 97.0262 14.4763C97.0864 14.4813 97.1564 14.4833 97.2357 14.4833C98.1147 14.4836 98.5543 14.2068 98.5543 13.6529ZM106.57 14.4836C106.57 15.2193 106.343 15.8295 105.891 16.3138C105.438 16.7981 104.878 17.0401 104.211 17.0401C103.575 17.0401 103.043 16.8178 102.614 16.373C102.186 15.9285 101.971 15.3632 101.971 14.6781C101.971 13.9424 102.198 13.3322 102.65 12.8479C103.103 12.3636 103.663 12.1216 104.33 12.1216C104.966 12.1216 105.498 12.3432 105.927 12.7866C106.355 13.2302 106.57 13.7955 106.57 14.4836ZM105.573 14.5877C105.573 14.0867 105.444 13.6803 105.186 13.3687C104.929 13.0571 104.611 12.9015 104.233 12.9015C103.881 12.9015 103.582 13.0585 103.337 13.3724C103.091 13.6864 102.968 14.083 102.968 14.5626C102.968 15.061 103.098 15.4667 103.357 15.7796C103.616 16.0926 103.933 16.2489 104.308 16.2489C104.66 16.2489 104.959 16.0912 105.204 15.776C105.45 15.461 105.573 15.0647 105.573 14.5877ZM111.466 16.9106H110.574C110.574 16.8122 110.243 16.2934 109.581 15.3539C108.887 14.3638 108.492 13.687 108.396 13.3226H108.338C108.398 13.8474 108.428 14.322 108.428 14.7464C108.428 15.3385 108.445 16.0601 108.479 16.9109H107.59C107.626 16.1679 107.644 15.3519 107.644 14.4626C107.644 13.5877 107.626 12.8433 107.59 12.2297H108.663C108.663 12.3569 108.96 12.864 109.555 13.7507C110.189 14.6925 110.552 15.3315 110.646 15.6672H110.7C110.642 15.1327 110.613 14.6533 110.613 14.2289C110.613 13.5796 110.596 12.9129 110.563 12.2297H111.466C111.432 12.8242 111.416 13.5686 111.416 14.4626C111.416 15.3632 111.432 16.1793 111.466 16.9106Z" fill="black"/>
</g>
<defs>
<linearGradient id="paint0_linear" x1="22.5078" y1="11.6211" x2="22.5078" y2="49.5443" gradientUnits="userSpaceOnUse">
<stop stop-color="#257CB0"/>
<stop offset="0.286" stop-color="#4A93B5"/>
<stop offset="0.767" stop-color="#78BCBB"/>
<stop offset="1" stop-color="#89CFBD"/>
</linearGradient>
<linearGradient id="paint1_linear" x1="12.9017" y1="21.033" x2="37.2748" y2="21.033" gradientUnits="userSpaceOnUse">
<stop stop-color="#52C1AD"/>
<stop offset="1" stop-color="#DEE89A"/>
</linearGradient>
<linearGradient id="paint2_linear" x1="25.0878" y1="30.5831" x2="25.0878" y2="49.6824" gradientUnits="userSpaceOnUse">
<stop stop-color="#EC413D"/>
<stop offset="0.167" stop-color="#DA4452"/>
<stop offset="0.575" stop-color="#B0487A"/>
<stop offset="0.862" stop-color="#954A92"/>
<stop offset="1" stop-color="#8A4A9D"/>
</linearGradient>
<linearGradient id="paint3_linear" x1="39.126" y1="25.4898" x2="39.126" y2="35.6752" gradientUnits="userSpaceOnUse">
<stop stop-color="#F58879"/>
<stop offset="0.119" stop-color="#F69079"/>
<stop offset="0.713" stop-color="#FCB877"/>
<stop offset="1" stop-color="#FEC874"/>
</linearGradient>
<clipPath id="clip0">
<rect width="172" height="56" fill="white" transform="translate(0 0.839844)"/>
</clipPath>
</defs>
</svg>
