<svg width="96" height="96" viewBox="0 0 96 96" fill="none" xmlns="http://www.w3.org/2000/svg">
<path fill-rule="evenodd" clip-rule="evenodd" d="M38.4496 34.9302L38.4335 34.9108L38.4173 34.8946L38.4012 34.8817L38.3882 34.872L38.3721 34.8623L38.3591 34.8558L38.3462 34.8526H38.3398H38.3333H38.3268H38.3204L38.3139 34.8558H38.3074L38.301 34.8591L38.2945 34.8623L38.2816 34.872L38.2719 34.8817L38.259 34.8946L38.2493 34.9108L38.2396 34.9302L38.0715 56.3106L38.0876 56.7501L38.1103 56.9538L38.1394 57.1445L38.1814 57.3222L38.2299 57.4903L38.288 57.6454L38.3527 57.7909L38.4303 57.9202L38.5143 58.043L38.6048 58.1529L38.7082 58.2498L38.8181 58.3339L38.9377 58.4082L39.067 58.4696L39.206 58.5213L39.5647 58.6345L40.0592 58.767L41.4652 59.0869L41.4781 59.1096L41.4943 59.1322L41.504 59.1613L41.5169 59.1904L41.5266 59.2259L41.5363 59.2647L41.5525 59.3487L41.5622 59.4489L41.5686 59.5621V59.6881V59.8303L41.5525 60.0986L41.5428 60.2117L41.5298 60.3119L41.5169 60.3992L41.5008 60.4735L41.4846 60.5317L41.4749 60.5543L41.4652 60.5769L35.8963 60.4218L32.5478 60.4994L30.3726 60.5769L30.3403 60.5091L30.3144 60.4315L30.2918 60.3475L30.2724 60.2537L30.253 60.1535L30.2401 60.0469L30.2239 59.8045L30.2207 59.6817L30.2239 59.5685L30.2304 59.4619L30.2401 59.3681L30.2563 59.2841L30.2756 59.2098L30.2886 59.1742L30.3015 59.1419L30.3144 59.1128L30.3306 59.0869L31.7818 58.8542L32.2828 58.7573L32.6319 58.6765L32.8516 58.5957L33.052 58.5052L33.2363 58.405L33.3979 58.2951L33.4754 58.2369L33.5433 58.1787L33.608 58.1173L33.6694 58.0527L33.7243 57.988L33.776 57.9169L33.8245 57.8491L33.8665 57.7747L33.9409 57.6131L34.0087 57.4256L34.0701 57.2123L34.1219 56.9731L34.1671 56.7049L34.2059 56.4108L34.2641 55.7449L34.597 44.077L34.723 32.7194L34.7036 32.3283L34.681 32.1473L34.6487 31.976L34.6067 31.8112L34.5582 31.6593L34.4968 31.5171L34.4289 31.3846L34.3513 31.2585L34.2641 31.1454L34.1671 31.042L34.0637 30.9482L33.9473 30.861L33.8245 30.7866L33.692 30.7187L33.553 30.6638L33.3041 30.6089L32.7676 30.4957L30.8316 30.0982L30.8154 30.0756L30.7993 30.0529L30.7863 30.0238L30.7734 29.9948L30.7637 29.9592L30.754 29.9204L30.7346 29.8332L30.7217 29.733L30.712 29.6198L30.7055 29.4938V29.3516V29.2126L30.712 29.0865L30.7217 28.9766L30.7346 28.8829L30.754 28.8053L30.7637 28.7698L30.7734 28.7407L30.7863 28.7148L30.7993 28.6922L30.8154 28.6761L30.8219 28.6664L30.8316 28.6599L33.6791 28.7375L38.2396 28.8118L38.246 28.8312L38.2654 28.8732L38.343 29.0122L38.6339 29.5164L39.6681 31.2714L42.855 36.6109L46.2002 42.2218L48.1136 45.4992L48.9508 46.9278L49.2513 47.4384L51.4492 51.178L51.8855 51.9343L52.073 52.2866L52.241 52.6324L52.3865 52.975L52.5093 53.3241L52.616 53.6829L52.7 54.0578L52.7517 54.4133L52.784 54.7527L52.797 55.0791L52.7937 55.3959L52.7711 55.7126L52.7291 56.0261L52.6774 56.3429L52.6095 56.6661L52.5675 56.8212L52.5158 56.9731L52.393 57.2802L52.241 57.5743L52.0697 57.8555L51.8823 58.1173L51.6916 58.3533L51.5009 58.5633L51.3199 58.7379L51.2585 58.7831L51.1906 58.8219L51.1163 58.8575L51.0322 58.8898L50.9417 58.9156L50.848 58.9383L50.6476 58.9738L50.4343 58.9964L50.221 59.0094L49.817 59.0158V56.275L49.9883 56.1877L50.1434 56.0843L50.2856 55.9647L50.4117 55.829L50.5216 55.6835L50.6121 55.5252L50.6896 55.3571L50.7446 55.1793L50.7834 54.9951L50.806 54.8044V54.6072L50.7866 54.4069L50.7478 54.2032L50.6896 53.9996L50.6088 53.796L50.5086 53.5924L50.4472 53.4889L50.4117 53.434L47.9068 49.4908L43.8957 43.3401L40.1497 37.6064L38.9312 35.722L38.5854 35.1694L38.4884 35.0078L38.4496 34.9302ZM49.817 59.0191V56.275V59.0191ZM49.6004 31.5979L49.6036 42.3802L48.2882 44.6265L46.9598 42.3802L47.018 31.5979L46.9856 30.6444L46.9695 30.3212L46.9501 30.1014L46.9113 29.7653L46.8854 29.6134L46.8596 29.4744L46.824 29.3451L46.7885 29.232L46.7465 29.1253L46.7012 29.0348L46.6754 28.9928L46.6463 28.9508L46.6139 28.912L46.5784 28.8764L46.5428 28.8409L46.5008 28.8053L46.4556 28.773L46.4103 28.7407L46.3069 28.6825L46.1905 28.6308L46.0613 28.5856L45.9223 28.5468L45.7865 28.5015L45.6411 28.4627L45.4762 28.4207L45.2952 28.3852L44.888 28.3173L44.4226 28.2591L44.4161 28.2527L44.4096 28.2494L44.4 28.2365L44.3903 28.2171L44.3838 28.1977L44.3741 28.1783L44.3676 28.1525L44.3547 28.091L44.345 28.0199L44.3353 27.9359L44.3321 27.8422V27.7355V27.6289L44.3385 27.5319L44.3482 27.4479L44.3612 27.3768L44.3676 27.3444L44.3773 27.3186L44.387 27.2927L44.4 27.2701L44.4096 27.2507L44.4226 27.2345L44.4355 27.2216L44.442 27.2151L44.4517 27.2119L46.2164 27.2636L48.5403 27.3186L50.7187 27.2636L52.3348 27.2119L52.338 27.2151L52.3412 27.2184L52.3445 27.2216L52.3509 27.2281L52.3574 27.2378L52.3639 27.2507L52.3703 27.2636L52.38 27.2798L52.3865 27.2992L52.393 27.3186V28.2591L51.8079 28.3496L51.3264 28.4401L50.9417 28.5274L50.7866 28.5726L50.6573 28.6179L50.5086 28.6664L50.3729 28.7245L50.2533 28.7892L50.1984 28.8247L50.1466 28.8635L50.0949 28.9023L50.0497 28.9443L50.0077 28.9863L49.9689 29.0316L49.9333 29.0801L49.901 29.1286L49.8719 29.1803L49.8493 29.232L49.804 29.3483L49.762 29.4776L49.7265 29.6198L49.6974 29.775L49.6715 29.9463L49.6521 30.1273L49.6295 30.5345L49.6004 31.5979ZM49.6069 59.895L49.6295 60.7353L49.6521 61.1426L49.6715 61.3236L49.6974 61.4949L49.7265 61.65L49.762 61.7922L49.804 61.9215L49.8493 62.0379L49.8719 62.0896L49.901 62.1413L49.9333 62.1898L49.9689 62.2383L50.0077 62.2835L50.0497 62.3255L50.0949 62.3675L50.1466 62.4063L50.1984 62.4451L50.2533 62.4807L50.3729 62.5453L50.5086 62.6035L50.6573 62.652L50.7866 62.6972L50.9417 62.7425L51.3264 62.833L51.8079 62.9202L52.393 63.0107V63.9513L52.3865 63.9707L52.38 63.9901L52.3703 64.0062L52.3639 64.0191L52.3574 64.0321L52.3509 64.045L52.3412 64.0547L52.338 64.0579L52.3348 64.0612L50.7187 64.0062L48.5403 63.9513L46.2164 64.0062L44.4517 64.0612L44.442 64.0547L44.4355 64.0515L44.4226 64.0385L44.4096 64.0191L44.4 63.9997L44.387 63.9771L44.3773 63.9545L44.3676 63.9254L44.3612 63.8931L44.3482 63.822L44.3385 63.7379L44.3321 63.641V63.5343V63.4277L44.3353 63.3339L44.345 63.2499L44.3547 63.1788L44.3676 63.1174L44.3741 63.0915L44.3838 63.0721L44.3903 63.0527L44.4 63.0333L44.4096 63.0204L44.4161 63.0172L44.4226 63.0107L44.888 62.9525L45.2952 62.8847L45.4762 62.8491L45.6411 62.8071L45.7865 62.7683L45.9223 62.7231L46.0613 62.6843L46.1905 62.639L46.3069 62.5873L46.4103 62.5291L46.4556 62.4968L46.5008 62.4645L46.5428 62.4289L46.5784 62.3934L46.6139 62.3578L46.6463 62.3191L46.6754 62.277L46.7012 62.235L46.7465 62.1445L46.7885 62.0379L46.824 61.9247L46.8596 61.7955L46.8854 61.6565L46.9113 61.5046L46.9501 61.1684L46.963 61.0101L46.9792 60.7935L47.005 60.1762L47.0664 53.4211L48.2882 51.178L49.6036 53.4211V59.4554L49.6069 59.895ZM48.6599 45.2568L53.702 36.6529L56.488 31.6431L57.393 29.8299L57.6548 29.2061L57.7292 28.9799L57.7647 28.8118L62.3252 28.7375L65.1727 28.6599L65.1792 28.6664L65.1856 28.6761L65.2018 28.6922L65.2147 28.7148L65.2276 28.7407L65.2373 28.7698L65.247 28.8053L65.2664 28.8829L65.2794 28.9766L65.2891 29.0865L65.2955 29.2126L65.2988 29.3516L65.2955 29.4938L65.2891 29.6198L65.2794 29.733L65.2664 29.8332L65.247 29.9204L65.2373 29.9592L65.2276 29.9948L65.2147 30.0238L65.2018 30.0529L65.1856 30.0756L65.1727 30.0982L63.2334 30.4957L62.6969 30.6089L62.4513 30.6638L62.3091 30.7187L62.1765 30.7866L62.0537 30.861L61.9374 30.9482L61.8339 31.042L61.737 31.1454L61.6497 31.2585L61.5721 31.3846L61.5043 31.5171L61.4461 31.6593L61.3944 31.8112L61.3524 31.976L61.32 32.1473L61.2974 32.3283L61.2812 32.7194L61.4073 44.077L61.7402 55.7449L61.7952 56.4108L61.8339 56.7049L61.8792 56.9731L61.9341 57.2123L61.9923 57.4256L62.0602 57.6131L62.1378 57.7747L62.1765 57.8491L62.225 57.9169L62.2767 57.988L62.3317 58.0527L62.3931 58.1173L62.4577 58.1787L62.5288 58.2369L62.6032 58.2951L62.7648 58.405L62.949 58.5052L63.1494 58.5957L63.3724 58.6765L63.7183 58.7573L64.2192 58.8542L65.6737 59.0869L65.6866 59.1128L65.7028 59.1419L65.7157 59.1742L65.7254 59.2098L65.7448 59.2841L65.7609 59.3681L65.7739 59.4619L65.7803 59.5685V59.6817V59.8045L65.7609 60.0469L65.748 60.1535L65.7286 60.2537L65.7092 60.3475L65.6866 60.4315L65.6607 60.5091L65.6317 60.5769L63.4565 60.4994L60.108 60.4218L54.5391 60.5769L54.5261 60.5543L54.5164 60.5317L54.5003 60.4735L54.4841 60.3992L54.4712 60.3119L54.4583 60.2117L54.4486 60.0986L54.4356 59.8303L54.4324 59.6881V59.5621L54.4389 59.4489L54.4486 59.3487L54.4647 59.2647L54.4744 59.2259L54.4841 59.1904L54.4971 59.1613L54.51 59.1322L54.5229 59.1096L54.5391 59.0869L55.9418 58.767L56.4363 58.6345L56.7983 58.5213L56.9341 58.4696L57.0633 58.4082L57.1829 58.3339L57.2928 58.2498L57.3963 58.1529L57.4868 58.043L57.5708 57.9202L57.6484 57.7909L57.713 57.6454L57.7712 57.4903L57.8197 57.3222L57.8617 57.1445L57.8908 56.9538L57.9134 56.7501L57.9328 56.3106L57.7647 34.9302L57.7518 34.9108L57.7421 34.8946L57.7292 34.8817L57.7195 34.872L57.7065 34.8623L57.7001 34.8591L57.6936 34.8558H57.6871L57.6807 34.8526H57.6742H57.6677H57.6613H57.6548L57.6419 34.8558L57.629 34.8623L57.6128 34.872L57.5999 34.8817L57.5837 34.8946L57.5676 34.9108L57.5546 34.9302L49.8493 47.2833L48.6599 45.2568ZM46.7368 59.0158V56.275L46.5558 56.1813L46.3942 56.0649L46.252 55.9324L46.1291 55.7773L46.0225 55.6092L45.9384 55.4282L45.8738 55.2343L45.8253 55.0307L45.7995 54.8206L45.7962 54.6008L45.8124 54.381L45.8479 54.158L45.9061 53.935L45.9869 53.712L46.0903 53.4954L46.2164 53.2821L47.8809 50.4928L46.6947 48.4727L45.1724 51.0131L44.4484 52.4223L44.2836 52.7843L44.1382 53.1496L44.0186 53.5213L43.9281 53.9026L43.8731 54.2582L43.8408 54.5976L43.8279 54.924L43.8343 55.244L43.857 55.5575L43.8957 55.871L43.9507 56.1877L44.0218 56.511L44.0606 56.6661L44.1123 56.8212L44.2351 57.1251L44.387 57.4224L44.5583 57.7036L44.7426 57.9654L44.9333 58.2013L45.1239 58.4114L45.3082 58.586L45.3631 58.6345L45.431 58.6765L45.5021 58.7217L45.5797 58.7605L45.7542 58.8348L45.9417 58.8963L46.1388 58.948L46.3424 58.9835L46.5428 59.0094L46.7368 59.0158Z" fill="url(#paint0_linear)"/>
<path fill-rule="evenodd" clip-rule="evenodd" d="M53.0357 84.9985L53.8082 84.8854L54.5548 84.8111L54.9104 84.7884L55.2497 84.7787L55.5697 84.782L55.8638 84.7981L56.3325 84.866L56.8044 84.9759L57.2698 85.1246L57.7352 85.3056L58.1909 85.5189L58.6337 85.7581L59.0604 86.0231L59.4676 86.3043L59.8425 86.6081L60.1981 86.9216L60.531 87.2416L60.8316 87.5648L61.0998 87.8913L61.3293 88.2145L61.52 88.5344L61.5976 88.6896L61.6655 88.8447L60.9221 89.1065L60.1173 89.3392L59.2705 89.5396L58.3946 89.7109L57.5025 89.8467L56.6137 89.9436L55.741 89.9986L54.9007 90.0147L54.5225 89.9986L54.1411 89.9404L53.7597 89.8434L53.3816 89.7109L53.0066 89.5461L52.6382 89.3522L52.2794 89.1259L51.9336 88.877L51.5974 88.6023L51.2807 88.305L50.9801 87.9914L50.7021 87.6585L50.4468 87.3127L50.2173 86.9539L50.0169 86.5887L49.8456 86.2138L49.7713 86.0554L49.6937 85.9164L49.6129 85.7968L49.5289 85.6902L49.2283 85.3476L49.1701 85.2668L49.1249 85.1795L49.1055 85.1375L49.0926 85.089L49.0796 85.0405L49.0732 84.9856L49.0764 84.8725L49.0958 84.7399L49.1378 84.588L49.2024 84.4135L49.6485 83.376L50.1559 82.29L50.7118 81.2428L50.9995 80.7612L51.2936 80.3217L51.6298 79.895L52.0047 79.4781L52.8547 78.6668L53.792 77.904L54.7811 77.2027L55.7701 76.5724L56.7171 76.0294L57.5768 75.5834L58.3073 75.2505L57.0306 77.9105L56.2711 79.3746L55.3887 80.8873L55.2012 81.1685L54.9944 81.4529L54.7681 81.7341L54.5225 82.0153L54.2607 82.2932L53.986 82.568L53.3913 83.1045L52.7125 83.6507L52.0952 84.0903L51.4585 84.4975L50.7312 84.9371L49.5354 85.6579L50.547 85.4801L53.0357 84.9985ZM61.4069 81.7244L62.0921 81.4723L62.7579 81.2557L63.0779 81.1685L63.3817 81.0909L63.6726 81.0327L63.9441 80.9907L64.3804 80.9616L64.8265 80.9713L65.2789 81.0166L65.7282 81.0941L66.1775 81.1976L66.6203 81.3301L67.0534 81.4884L67.4703 81.6662L67.8614 81.8698L68.2363 82.0864L68.5919 82.3126L68.9183 82.5486L69.2157 82.7942L69.4807 83.0431L69.7069 83.2952L69.8039 83.4212L69.8912 83.5505L69.2577 83.9319L68.5628 84.3004L67.8258 84.6462L67.0566 84.9694L66.268 85.2635L65.4761 85.5254L64.6907 85.7451L63.9279 85.9229L63.5821 85.9811L63.2266 86.0005L62.8646 85.9875L62.4993 85.9423L62.1309 85.8647L61.7624 85.7581L61.4004 85.6223L61.0417 85.4607L60.6926 85.2765L60.3532 85.0696L60.03 84.8401L59.723 84.5945L59.4321 84.3295L59.167 84.0483L58.9214 83.7542L58.7048 83.4471L58.6111 83.3178L58.5174 83.2047L58.4236 83.111L58.3299 83.0302L58.0002 82.7748L57.9356 82.7134L57.8774 82.6455L57.8548 82.6068L57.8322 82.568L57.816 82.5227L57.7999 82.4775L57.7837 82.3708L57.7805 82.248L57.7934 82.1025L57.8225 81.9312L58.0552 80.9034L58.3396 79.8142L58.6725 78.7541L58.8568 78.2596L59.0507 77.8038L59.2866 77.3513L59.5581 76.8989L60.1948 75.9971L60.9221 75.1212L61.7042 74.2938L62.4993 73.5278L63.2686 72.8523L63.9796 72.2802L64.5873 71.8341L63.8665 74.5006L63.4205 75.9809L62.8678 77.5259L62.745 77.82L62.6028 78.1174L62.4412 78.4179L62.2666 78.7185L62.0727 79.0224L61.8658 79.3262L61.4133 79.9306L60.8865 80.5608L60.3985 81.0812L59.8878 81.5725L59.2995 82.1122L58.3331 82.9978L59.222 82.6391L61.4069 81.7244ZM68.7179 78.1303L69.3385 77.7327L69.9493 77.3707L70.2435 77.2124L70.5311 77.0702L70.8026 76.9473L71.0612 76.8471L71.4814 76.7211L71.9209 76.6274L72.367 76.5692L72.8259 76.5433H73.2849L73.7438 76.5756L74.1963 76.6306L74.6391 76.7114L75.0625 76.8213L75.4698 76.9506L75.8576 77.0928L76.2229 77.2512L76.5622 77.4225L76.8693 77.6067L77.1375 77.8038L77.2571 77.904L77.367 78.0107L76.8208 78.5246L76.2132 79.0417L75.557 79.546L74.8686 80.0372L74.1543 80.5027L73.4271 80.9358L72.7031 81.3268L71.992 81.6727L71.6656 81.8052L71.3198 81.9054L70.9642 81.9733L70.5958 82.012L70.2208 82.0185L69.8427 81.9959L69.4613 81.9474L69.0799 81.8698L68.7017 81.7664L68.3333 81.6404L67.9713 81.4917L67.6222 81.3171L67.2893 81.1232L66.9726 80.9099L66.6784 80.6772L66.407 80.4251L66.2906 80.3184L66.1775 80.2312L66.0644 80.16L65.9609 80.1019L65.586 79.9273L65.5117 79.8821L65.4438 79.8271L65.4115 79.7948L65.3856 79.7625L65.3597 79.7237L65.3371 79.6817L65.3145 79.6332L65.2983 79.5815L65.2692 79.4619L65.2531 79.3165L65.2499 79.1419L65.2822 78.0818L65.3533 76.957L65.4729 75.842L65.5569 75.3184L65.6603 74.8271L65.8025 74.3326L65.9835 73.8284L66.4328 72.8038L66.9758 71.7857L67.5802 70.7966L68.2105 69.8723L68.8375 69.0351L69.4193 68.3176L69.9299 67.7455L69.7393 70.5122L69.5841 72.0604L69.3417 73.6958L69.2771 74.0094L69.193 74.3326L69.0961 74.6655L68.9797 75.0016L68.8504 75.341L68.7082 75.6836L68.3818 76.3753L67.9875 77.1089L67.6093 77.7295L67.2053 78.3242L66.7302 78.9868L65.9545 80.0696L66.756 79.5201L68.7179 78.1303ZM74.7749 72.4482L75.3211 72.0087L75.8609 71.6079L76.3748 71.2653L76.6172 71.1231L76.8499 71.0003L77.2345 70.8387L77.6353 70.7061L78.049 70.6059L78.4724 70.5316L78.9023 70.4864L79.3354 70.467L79.762 70.4702L80.1822 70.4993L80.5862 70.5607L80.9805 70.6383L81.3554 70.732L81.7142 70.8387L82.0439 70.9647L82.3477 71.1037L82.616 71.2588L82.7388 71.3429L82.8487 71.4301L82.3833 71.9699L81.8629 72.5129L81.294 73.0559L80.6929 73.5859L80.0691 74.0966L79.4291 74.5782L78.7859 75.0178L78.1524 75.4153L77.8583 75.5737L77.5448 75.703L77.2183 75.8032L76.879 75.8775L76.5267 75.9228L76.1711 75.9422L75.8092 75.9357L75.4472 75.9034L75.0852 75.8484L74.7296 75.7676L74.3773 75.6642L74.038 75.5381L73.7083 75.3927L73.3915 75.2246L73.0974 75.0372L72.8195 74.8303L72.6999 74.743L72.5867 74.6719L72.4768 74.617L72.3734 74.575L72.0114 74.4522L71.9339 74.4166L71.866 74.3714L71.8369 74.3455L71.8046 74.3164L71.7787 74.2841L71.7529 74.2453L71.7302 74.2033L71.7076 74.158L71.6721 74.0481L71.6462 73.9124L71.6268 73.7508L71.5622 72.7553L71.5266 71.6952L71.5395 70.6447L71.5719 70.147L71.6236 69.6783L71.7141 69.2L71.8369 68.7087L72.1666 67.7067L72.5835 66.6951L73.0619 65.7093L73.5693 64.7785L74.0767 63.9316L74.5583 63.198L74.985 62.6097L75.0528 65.218L75.0464 66.6822L74.9623 68.2368L74.93 68.5374L74.8815 68.8477L74.8201 69.1677L74.7426 69.4909L74.6521 69.8238L74.5486 70.1599L74.3062 70.8419L74.0024 71.5691L73.705 72.1864L73.3786 72.7844L72.994 73.4534L72.367 74.5459L73.0651 73.9479L73.9184 73.1949L74.345 72.8167L74.7749 72.4482ZM79.9592 65.6738L80.3955 65.1114L80.8318 64.5845L81.2617 64.1223L81.4653 63.922L81.6657 63.7442L82.0051 63.4888L82.3671 63.2594L82.7485 63.0557L83.146 62.878L83.5533 62.7261L83.967 62.6L84.3839 62.4966L84.8009 62.419L85.2081 62.3738L85.6057 62.3479L85.9903 62.3447L86.362 62.3608L86.711 62.3996L87.0343 62.461L87.1862 62.4998L87.3316 62.5451L87.4674 62.5936L87.5934 62.6517L87.2573 63.2917L86.8662 63.9543L86.4298 64.6233L85.9612 65.2891L85.4602 65.942L84.9431 66.5723L84.413 67.1638L83.8829 67.71L83.6308 67.9395L83.3529 68.1431L83.0555 68.3241L82.742 68.4792L82.4091 68.6117L82.0665 68.7216L81.7142 68.8057L81.3554 68.8671L80.9902 68.9026L80.625 68.9156L80.263 68.9026L79.9042 68.8671L79.5519 68.8089L79.2126 68.7249L78.8829 68.6182L78.5694 68.4857L78.4369 68.4307L78.3108 68.392L78.1912 68.3661L78.0813 68.3499L77.6999 68.3208L77.6191 68.3047L77.5448 68.2788L77.5092 68.2627L77.4737 68.24L77.4381 68.2174L77.4058 68.1851L77.3735 68.1528L77.3444 68.1108L77.2862 68.0138L77.228 67.891L77.1763 67.7358L76.8984 66.7856L76.6366 65.7643L76.4232 64.7364L76.3489 64.2419L76.3004 63.7733L76.2843 63.2852L76.2972 62.7778L76.4006 61.7209L76.5913 60.6317L76.8434 59.5554L77.1343 58.5211L77.4478 57.5676L77.7581 56.7337L78.0458 56.055L78.6728 58.576L78.9798 60.0014L79.2352 61.5334L79.2675 61.834L79.2901 62.1475L79.2966 62.474L79.2901 62.8101L79.2449 63.505L79.1576 64.229L79.0186 65.0112L78.8603 65.6899L78.6728 66.3525L78.4433 67.0991L78.0684 68.3241L78.6211 67.5645L79.9592 65.6738ZM83.3884 56.9923L83.6729 56.3233L83.967 55.693L84.2676 55.1209L84.4163 54.8688L84.5649 54.6426L84.83 54.3L85.1241 53.9768L85.4408 53.6729L85.7802 53.3885L86.1357 53.1235L86.5042 52.8843L86.8823 52.6645L87.267 52.4706L87.6484 52.3122L88.0265 52.1732L88.3982 52.0601L88.757 51.9696L89.1028 51.905L89.4325 51.8727L89.5876 51.8662H89.7363L89.8817 51.8759L90.0175 51.8953L89.8494 52.6096L89.6329 53.3594L89.3775 54.1287L89.0834 54.9076L88.7602 55.6801L88.4144 56.4364L88.0491 57.1572L87.6677 57.8359L87.4803 58.13L87.2637 58.4047L87.0213 58.6633L86.7563 58.9057L86.4686 59.1255L86.1648 59.3291L85.8448 59.5101L85.5152 59.6717L85.1726 59.8107L84.8235 59.9271L84.4712 60.0208L84.1157 60.0887L83.7634 60.1307L83.4143 60.1469L83.0685 60.1372L82.7355 60.1016L82.5933 60.0854H82.4608L82.3412 60.0919L82.2313 60.1081L81.8564 60.1889L81.7756 60.1986L81.6948 60.1953L81.656 60.1889L81.6172 60.1792L81.5785 60.163L81.5397 60.1469L81.5009 60.121L81.4621 60.0919L81.3813 60.0143L81.2973 59.9109L81.21 59.7784L80.7123 58.9413L80.208 58.0298L79.7523 57.099L79.5584 56.6465L79.3968 56.2069L79.2643 55.7415L79.1511 55.247L78.9928 54.1965L78.912 53.0912L78.8926 51.9793L78.9217 50.8998L78.9928 49.8914L79.0865 48.9961L79.1996 48.2592L80.4181 50.5152L81.0613 51.7983L81.6819 53.2043L81.7885 53.4855L81.8823 53.7828L81.9695 54.0931L82.0471 54.4196L82.115 54.7589L82.1732 55.1048L82.2637 55.8288L82.3218 56.6239L82.3348 57.322L82.3154 58.0169L82.2766 58.8023L82.212 60.0887L82.5578 59.1998L83.3884 56.9923ZM84.6393 47.1473L84.7265 46.4201L84.8397 45.722L84.9689 45.082L85.0433 44.7943L85.1241 44.5293L85.2857 44.1188L85.4764 43.7148L85.6994 43.3205L85.9483 42.9423L86.2165 42.5771L86.5042 42.2281L86.8048 41.9016L87.1183 41.5946L87.4383 41.3231L87.7647 41.071L88.0879 40.8415L88.4111 40.6411L88.7246 40.473L89.0285 40.334L89.3194 40.2338L89.4583 40.1983L89.5941 40.1724L89.6264 40.9094L89.6232 41.6948L89.5876 42.5125L89.5197 43.3496L89.4195 44.1899L89.2935 45.0206L89.1384 45.8254L88.9574 46.5946L88.8572 46.934L88.7246 47.2669L88.563 47.5933L88.3756 47.9101L88.1623 48.2139L87.9263 48.5048L87.671 48.7795L87.3962 49.0381L87.1054 49.2805L86.8048 49.5003L86.4913 49.7039L86.1713 49.8817L85.8448 50.0336L85.5152 50.1596L85.1823 50.2598L84.8526 50.3309L84.7136 50.36L84.5875 50.4021L84.4744 50.4473L84.371 50.499L84.0381 50.6929L83.9605 50.7285L83.8862 50.7479L83.8474 50.7543L83.8086 50.7576H83.7666L83.7246 50.7511L83.6793 50.7382L83.6341 50.7253L83.5371 50.6768L83.4272 50.6024L83.3076 50.5055L82.603 49.8623L81.8758 49.1512L81.5235 48.7828L81.1874 48.4078L80.8803 48.0329L80.6056 47.6645L80.3503 47.2604L80.1111 46.8241L79.678 45.8674L79.2998 44.8396L78.9798 43.7827L78.7148 42.7387L78.5112 41.7529L78.3625 40.8673L78.2688 40.1272L80.0432 41.8984L81.0064 42.9197L81.9792 44.0671L82.157 44.2998L82.3283 44.5552L82.4964 44.8267L82.658 45.1143L82.8164 45.4149L82.965 45.7317L83.2462 46.3942L83.5177 47.1344L83.7181 47.8002L83.8894 48.4692L84.0639 49.232L84.3516 50.4829L84.4421 49.5261L84.6393 47.1473ZM83.6826 37.3573L83.5856 36.63L83.5177 35.9254L83.4854 35.2726V34.972L83.4951 34.694L83.5468 34.2512L83.6308 33.8084L83.7472 33.3656L83.8894 32.9261L84.0575 32.4962L84.2482 32.076L84.455 31.672L84.678 31.2841L84.9205 30.9254L85.1693 30.5892L85.4247 30.2757L85.6832 29.9881L85.9418 29.7327L86.2004 29.5097L86.4557 29.3287L86.5818 29.2544L86.7046 29.1897L86.9211 29.8879L87.1151 30.6442L87.2831 31.4425L87.4286 32.2667L87.5449 33.1038L87.629 33.9409L87.6839 34.7651L87.7033 35.557L87.6936 35.9125L87.6484 36.2713L87.574 36.63L87.4738 36.9888L87.3445 37.3443L87.1894 37.6934L87.0116 38.0328L86.8112 38.3625L86.5947 38.6792L86.3587 38.983L86.1099 39.2674L85.8448 39.5325L85.5669 39.7749L85.2825 39.9947L84.9883 40.1886L84.6877 40.3534L84.5617 40.4245L84.4486 40.4989L84.3548 40.5797L84.2676 40.6572L83.9961 40.9449L83.9314 40.9999L83.8636 41.0419L83.8248 41.058L83.7892 41.0742L83.7472 41.0839L83.7052 41.0904L83.6599 41.0936L83.6115 41.0904L83.5048 41.0742L83.3852 41.0354L83.243 40.974L82.4059 40.5635L81.5267 40.0916L81.0969 39.8395L80.6799 39.5777L80.2888 39.3095L79.9333 39.0347L79.5875 38.7212L79.2481 38.3722L78.5888 37.5803L77.9682 36.7012L77.3929 35.78L76.879 34.8524L76.4329 33.9636L76.0677 33.1555L75.793 32.4703L77.9423 33.6533L79.1285 34.3546L79.7362 34.7457L80.3535 35.1724L80.583 35.3469L80.8092 35.5408L81.0387 35.7509L81.2682 35.9804L81.4944 36.226L81.7174 36.4846L82.157 37.0405L82.603 37.674L82.9618 38.2526L83.2915 38.8473L83.6535 39.5292L84.2417 40.6508L84.0898 39.7005L83.6826 37.3573ZM79.8881 27.7935L79.6457 27.1664L79.4356 26.5523L79.2643 25.9738L79.1996 25.7055L79.1479 25.4534L79.0994 25.0429L79.08 24.6228L79.0897 24.1961L79.1221 23.7695L79.1802 23.3396L79.261 22.9162L79.3612 22.5025L79.4776 22.0985L79.6166 21.7171L79.7685 21.3519L79.9301 21.006L80.0982 20.6861L80.2759 20.3887L80.4602 20.1269L80.6508 19.8974L80.7478 19.8005L80.8448 19.71L81.1874 20.2821L81.5235 20.9123L81.8467 21.5846L82.1538 22.2892L82.4382 23.0132L82.6935 23.7404L82.9198 24.4644L83.1072 25.169L83.1751 25.4922L83.2107 25.8251L83.2236 26.1645L83.2074 26.5136L83.1687 26.8626L83.104 27.2149L83.0167 27.564L82.9101 27.9098L82.784 28.2492L82.6354 28.5789L82.4738 28.8988L82.2928 29.2027L82.0988 29.4903L81.8887 29.7586L81.6657 30.0042L81.433 30.2272L81.3328 30.3242L81.252 30.4179L81.1809 30.5117L81.1227 30.6054L80.9385 30.9318L80.8932 30.9965L80.8415 31.0547L80.8124 31.0773L80.7801 31.0999L80.7478 31.1193L80.7123 31.1355L80.6702 31.1484L80.6282 31.1581L80.528 31.171L80.4117 31.1678L80.2727 31.1484L79.4323 30.99L78.5435 30.7896L78.1007 30.67L77.6708 30.5408L77.2636 30.3985L76.8854 30.2434L76.5073 30.0495L76.1291 29.82L75.3696 29.277L74.623 28.6467L73.9119 27.9615L73.2526 27.2602L72.6611 26.575L72.1601 25.9447L71.7658 25.3985L73.9475 25.9156L75.1595 26.2485L75.7898 26.4457L76.4329 26.6719L76.6754 26.7721L76.9242 26.8885L77.1731 27.021L77.4284 27.1664L77.6805 27.328L77.9391 27.5058L78.1944 27.6933L78.4498 27.8937L78.9863 28.3494L79.4323 28.7793L79.859 29.2285L80.3276 29.7489L81.0969 30.6054L80.7575 29.7909L79.8881 27.7935ZM74.5001 20.2562L74.0832 19.7455L73.7018 19.2381L73.3721 18.75L73.2299 18.5173L73.1103 18.2943L72.9423 17.9226L72.8001 17.5348L72.6805 17.1275L72.5867 16.7073L72.5156 16.2839L72.4639 15.8541L72.4348 15.4274L72.4284 15.004L72.4478 14.5935L72.4833 14.196L72.5318 13.8114L72.5997 13.4494L72.6805 13.1068L72.7774 12.7933L72.8873 12.5121L72.952 12.386L73.0166 12.2664L73.5111 12.6898L74.0153 13.1682L74.5228 13.695L75.0205 14.2542L75.5021 14.8424L75.9611 15.4436L76.3877 16.0512L76.7756 16.6556L76.9339 16.9368L77.0664 17.2406L77.1796 17.5606L77.2668 17.8935L77.3315 18.2394L77.3767 18.5949L77.3961 18.9537L77.3993 19.3189L77.3767 19.6841L77.3379 20.0493L77.2765 20.4081L77.1957 20.7572L77.0955 21.0965L76.9759 21.423L76.8402 21.7365L76.6851 22.0274L76.6204 22.1534L76.5687 22.273L76.5299 22.3862L76.5008 22.4928L76.4232 22.8645L76.4006 22.9421L76.3683 23.0132L76.3489 23.0455L76.3263 23.0778L76.3004 23.1069L76.2681 23.136L76.2358 23.1619L76.197 23.1877L76.1065 23.233L75.9934 23.2685L75.8576 23.3008L75.0141 23.4431L74.1123 23.5594L73.6598 23.6014L73.2138 23.6273L72.7871 23.6337L72.3831 23.6176L71.9694 23.5659L71.5395 23.4786L70.6604 23.2265L69.7651 22.8871L68.8892 22.4863L68.0553 22.05L67.2925 21.6072L66.63 21.1806L66.0967 20.8024L68.3171 20.5374L69.5647 20.4307L70.2208 20.4016L70.8963 20.3919L71.1549 20.4016L71.4232 20.4243L71.7011 20.463L71.9856 20.5148L72.2765 20.5826L72.5706 20.6602L72.8679 20.7507L73.1685 20.8509L73.8117 21.0965L74.3612 21.3454L74.8977 21.6266L75.4989 21.9563L76.4782 22.4993L75.9158 21.8464L74.5001 20.2562ZM68.2848 15.3725L67.8291 14.9943L67.4057 14.6097L67.0308 14.2315L66.8659 14.0505L66.7205 13.8728L66.5104 13.5722L66.3229 13.249L66.1516 12.9064L65.9997 12.5476L65.8672 12.1792L65.7541 11.8042L65.6603 11.4261L65.586 11.0479L65.5375 10.6762L65.5052 10.311L65.489 9.9587V9.61933L65.5084 9.29935L65.544 8.99877L65.6022 8.72404L65.6345 8.60122L65.6765 8.48163L66.1872 8.76929L66.7172 9.10543L67.257 9.48358L67.7935 9.89083L68.3204 10.3272L68.8278 10.7829L69.3094 11.2483L69.7522 11.717L69.9396 11.94L70.1077 12.1856L70.2596 12.4539L70.3921 12.7351L70.5053 13.0357L70.599 13.346L70.6766 13.6659L70.738 13.9924L70.7768 14.322L70.7962 14.6582L70.7994 14.9911L70.7832 15.3208L70.7477 15.644L70.6927 15.9607L70.6216 16.2645L70.5279 16.5554L70.4891 16.6783L70.4632 16.7978L70.4471 16.9045L70.4374 17.0079L70.4277 17.357L70.418 17.4313L70.4018 17.4992L70.3889 17.5348L70.3727 17.5671L70.3534 17.5994L70.334 17.6285L70.3049 17.6608L70.2758 17.6899L70.2014 17.7448L70.1077 17.7998L69.9881 17.8547L69.2544 18.1392L68.4658 18.4139L68.065 18.5367L67.6707 18.6434L67.2861 18.7274L66.9209 18.7888L66.5395 18.8179L66.1419 18.8211L65.3113 18.7597L64.4548 18.6207L63.6047 18.4268L62.787 18.1909L62.0307 17.9355L61.3681 17.677L60.8283 17.4378L62.7805 16.7849L63.8827 16.4552L64.4677 16.3033L65.0721 16.1708L65.3048 16.132L65.5504 16.1029L65.8058 16.0868L66.0676 16.0803L66.3391 16.0835L66.617 16.0997L66.8982 16.1223L67.1859 16.1579L67.8032 16.2581L68.3365 16.3809L68.8601 16.5296L69.4516 16.717L70.418 17.0209L69.8071 16.5393L68.2848 15.3725ZM61.5717 11.8204L61.1871 11.4972L60.8283 11.1707L60.5084 10.8508L60.3694 10.6956L60.2466 10.5469L60.0688 10.2916L59.9072 10.0169L59.7617 9.72922L59.6357 9.42541L59.5226 9.11189L59.4256 8.79191L59.3448 8.47193L59.2834 8.15196L59.2446 7.83844L59.2155 7.52816L59.2026 7.23081V6.94315L59.2187 6.67165L59.2511 6.41631L59.2963 6.18684L59.3254 6.08018L59.361 5.97998L59.7941 6.22239L60.2433 6.50681L60.6991 6.82679L61.1548 7.17263L61.6008 7.54432L62.0307 7.92894L62.4379 8.32326L62.8129 8.72081L62.9712 8.9115L63.1134 9.11836L63.2427 9.3446L63.3558 9.58378L63.4528 9.83588L63.5336 10.0977L63.5983 10.3692L63.6467 10.6471L63.6823 10.9283L63.7017 11.2128V11.494L63.6888 11.7751L63.6597 12.0499L63.6144 12.3181L63.5498 12.5767L63.4722 12.8223L63.4399 12.929L63.4173 13.026L63.4043 13.1197L63.3979 13.2037L63.3882 13.5011L63.3817 13.5625L63.3655 13.6239L63.3558 13.6498L63.3429 13.6789L63.3268 13.7047L63.3074 13.7306L63.2847 13.7564L63.2589 13.7823L63.1975 13.8308L63.1167 13.876L63.0165 13.9213L62.3927 14.1637L61.7236 14.3964L61.3843 14.4998L61.0481 14.5871L60.7249 14.6614L60.4146 14.7131L60.0914 14.739L59.7553 14.7422L59.0507 14.6905L58.3267 14.5709L57.6027 14.4061L56.911 14.2057L56.2711 13.9891L55.7119 13.7694L55.253 13.5657L56.9046 13.013L57.8386 12.7351L58.3331 12.6058L58.8471 12.4927L59.0442 12.4604L59.2543 12.4345L59.4709 12.4216L59.6939 12.4151L59.9233 12.4216L60.1561 12.4345L60.6376 12.483L61.1612 12.567L61.3907 12.6187L61.6137 12.6737L62.0598 12.7997L62.5607 12.9581L63.3785 13.2134L62.8613 12.8062L61.5717 11.8204ZM42.9548 84.9985L42.1823 84.8854L41.4357 84.8111L41.0802 84.7884L40.7408 84.7787L40.424 84.782L40.1267 84.7981L39.658 84.866L39.1894 84.9759L38.7207 85.1246L38.2585 85.3056L37.8028 85.5189L37.36 85.7581L36.9334 86.0231L36.5261 86.3043L36.1512 86.6081L35.7957 86.9216L35.4628 87.2416L35.1622 87.5648L34.8939 87.8913L34.6612 88.2145L34.4705 88.5344L34.3929 88.6896L34.3251 88.8447L35.0684 89.1065L35.8732 89.3392L36.7233 89.5396L37.5992 89.7109L38.4912 89.8467L39.3801 89.9436L40.2527 89.9986L41.0931 90.0147L41.4713 89.9986L41.8494 89.9404L42.2308 89.8434L42.6122 89.7109L42.9839 89.5461L43.3523 89.3522L43.7143 89.1259L44.0602 88.877L44.3931 88.6023L44.7131 88.305L45.0104 87.9914L45.2916 87.6585L45.5469 87.3127L45.7764 86.9539L45.9768 86.5887L46.1481 86.2138L46.2224 86.0554L46.3 85.9164L46.3808 85.7968L46.4649 85.6902L46.7654 85.3476L46.8236 85.2668L46.8689 85.1795L46.885 85.1375L46.9012 85.089L46.9109 85.0405L46.9174 84.9856V84.8725L46.898 84.7399L46.8559 84.588L46.7913 84.4135L46.3453 83.376L45.8346 82.29L45.2787 81.2428L44.991 80.7612L44.6969 80.3217L44.3608 79.895L43.9858 79.4781L43.139 78.6668L42.1985 77.904L41.2127 77.2027L40.2237 76.5724L39.2767 76.0294L38.4137 75.5834L37.6832 75.2505L38.9599 77.9105L39.7195 79.3746L40.6018 80.8873L40.7893 81.1685L40.9961 81.4529L41.2256 81.7341L41.4713 82.0153L41.7331 82.2932L42.0078 82.568L42.6025 83.1045L43.2812 83.6507L43.8986 84.0903L44.5353 84.4975L45.2625 84.9371L46.4552 85.6579L45.4467 85.4801L42.9548 84.9985ZM34.5869 81.7244L33.9017 81.4723L33.2358 81.2557L32.9159 81.1685L32.612 81.0909L32.3212 81.0327L32.0497 80.9907L31.6101 80.9616L31.1641 80.9713L30.7148 81.0166L30.2623 81.0941L29.813 81.1976L29.3702 81.3301L28.9404 81.4884L28.5234 81.6662L28.1323 81.8698L27.7542 82.0864L27.4019 82.3126L27.0755 82.5486L26.7749 82.7942L26.5131 83.0431L26.2868 83.2952L26.1899 83.4212L26.1026 83.5505L26.7361 83.9319L27.4277 84.3004L28.1679 84.6462L28.9371 84.9694L29.7225 85.2635L30.5176 85.5254L31.2998 85.7451L32.0626 85.9229L32.4084 85.9811L32.764 86.0005L33.126 85.9875L33.4944 85.9423L33.8596 85.8647L34.2281 85.7581L34.5933 85.6223L34.9489 85.4607L35.2979 85.2765L35.6373 85.0696L35.9605 84.8401L36.2708 84.5945L36.5585 84.3295L36.8267 84.0483L37.0724 83.7542L37.2889 83.4471L37.3826 83.3178L37.4764 83.2047L37.5701 83.111L37.6638 83.0302L37.9935 82.7748L38.0581 82.7134L38.1163 82.6455L38.139 82.6068L38.1616 82.568L38.1777 82.5227L38.1939 82.4775L38.2101 82.3708L38.2133 82.248L38.2004 82.1025L38.1713 81.9312L37.9353 80.9034L37.6509 79.8142L37.3212 78.7541L37.137 78.2596L36.9431 77.8038L36.7071 77.3513L36.4356 76.8989L35.7989 75.9971L35.0717 75.1212L34.2895 74.2938L33.4944 73.5278L32.7219 72.8523L32.0109 72.2802L31.4032 71.8341L32.1272 74.5006L32.5733 75.9809L33.126 77.5259L33.2488 77.82L33.391 78.1174L33.5526 78.4179L33.7271 78.7185L33.9211 79.0224L34.1279 79.3262L34.5804 79.9306L35.104 80.5608L35.5953 81.0812L36.106 81.5725L36.6942 82.1122L37.6606 82.9978L36.7718 82.6391L34.5869 81.7244ZM27.2758 78.1303L26.6553 77.7327L26.0412 77.3707L25.7471 77.2124L25.4626 77.0702L25.1911 76.9473L24.9326 76.8471L24.5092 76.7211L24.0728 76.6274L23.6236 76.5692L23.1678 76.5433H22.7089L22.2499 76.5756L21.7974 76.6306L21.3546 76.7114L20.9312 76.8213L20.524 76.9506L20.1361 77.0928L19.7677 77.2512L19.4315 77.4225L19.1245 77.6067L18.8562 77.8038L18.7366 77.904L18.6267 78.0107L19.1729 78.5246L19.7806 79.0417L20.4335 79.546L21.1251 80.0372L21.8394 80.5027L22.5634 80.9358L23.2874 81.3268L23.9985 81.6727L24.3249 81.8052L24.6708 81.9054L25.0263 81.9733L25.3948 82.012L25.7697 82.0185L26.1478 81.9959L26.5292 81.9474L26.9106 81.8698L27.2888 81.7664L27.6605 81.6404L28.0192 81.4917L28.3683 81.3171L28.7044 81.1232L29.0179 80.9099L29.3153 80.6772L29.5868 80.4251L29.7032 80.3184L29.8163 80.2312L29.9262 80.16L30.0328 80.1019L30.4045 79.9273L30.4821 79.8821L30.55 79.8271L30.5791 79.7948L30.6081 79.7625L30.634 79.7237L30.6566 79.6817L30.676 79.6332L30.6954 79.5815L30.7213 79.4619L30.7374 79.3165L30.7407 79.1419L30.7083 78.0818L30.6405 76.957L30.5209 75.842L30.4368 75.3184L30.3334 74.8271L30.1912 74.3326L30.0102 73.8284L29.5609 72.8038L29.0179 71.7857L28.4103 70.7966L27.7801 69.8723L27.1563 69.0351L26.5712 68.3176L26.0606 67.7455L26.2545 70.5122L26.4096 72.0604L26.652 73.6958L26.7167 74.0094L26.8007 74.3326L26.8977 74.6655L27.014 75.0016L27.1433 75.341L27.2855 75.6836L27.612 76.3753L28.0063 77.1089L28.3845 77.7295L28.7885 78.3242L29.2604 78.9868L30.0361 80.0696L29.2377 79.5201L27.2758 78.1303ZM21.2156 72.4482L20.6694 72.0087L20.1329 71.6079L19.8711 71.4269L19.6157 71.2653L19.3733 71.1231L19.1406 71.0003L18.7592 70.8387L18.3585 70.7061L17.9447 70.6059L17.5181 70.5316L17.0882 70.4864L16.6584 70.467L16.2285 70.4702L15.8083 70.4993L15.4043 70.5607L15.0132 70.6383L14.6351 70.732L14.2795 70.8387L13.9466 70.9647L13.6428 71.1037L13.3746 71.2588L13.2517 71.3429L13.1418 71.4301L13.6073 71.9699L14.1276 72.5129L14.6965 73.0559L15.2977 73.5859L15.9247 74.0966L16.5646 74.5782L17.2046 75.0178L17.8413 75.4153L18.1354 75.5737L18.449 75.703L18.7754 75.8032L19.1148 75.8775L19.4638 75.9228L19.8226 75.9422L20.1814 75.9357L20.5466 75.9034L20.9054 75.8484L21.2641 75.7676L21.6164 75.6642L21.9558 75.5381L22.2855 75.3927L22.6022 75.2246L22.8963 75.0372L23.1743 74.8303L23.2939 74.743L23.407 74.6719L23.5169 74.617L23.6203 74.575L23.9856 74.4522L24.0599 74.4166L24.1278 74.3714L24.1569 74.3455L24.1892 74.3164L24.215 74.2841L24.2409 74.2453L24.2635 74.2033L24.2861 74.158L24.3217 74.0481L24.3476 73.9124L24.3669 73.7508L24.4316 72.7553L24.4671 71.6952L24.4542 70.6447L24.4219 70.147L24.3702 69.6783L24.2797 69.2L24.1569 68.7087L23.8272 67.7067L23.4102 66.6951L22.9319 65.7093L22.4244 64.7785L21.9138 63.9316L21.4322 63.198L21.0056 62.6097L20.9409 65.218L20.9474 66.6822L21.0282 68.2368L21.0605 68.5374L21.109 68.8477L21.1704 69.1677L21.248 69.4909L21.3385 69.8238L21.4451 70.1599L21.6875 70.8419L21.9913 71.5691L22.2887 72.1864L22.6151 72.7844L22.9965 73.4534L23.6268 74.5459L22.9287 73.9479L21.2156 72.4482ZM16.0313 65.6738L15.595 65.1114L15.1587 64.5845L14.732 64.1223L14.5252 63.922L14.328 63.7442L13.9887 63.4888L13.6267 63.2594L13.2453 63.0557L12.8477 62.878L12.4405 62.7261L12.0268 62.6L11.6098 62.4966L11.1929 62.419L10.7856 62.3738L10.3881 62.3479L10.0002 62.3447L9.63177 62.3608L9.2827 62.3996L8.95949 62.461L8.80759 62.4998L8.66214 62.5451L8.52639 62.5936L8.40034 62.6517L8.73648 63.2917L9.12756 63.9543L9.56067 64.6233L10.0326 65.2891L10.5303 65.942L11.0474 66.5723L11.5775 67.1638L12.1108 67.71L12.3629 67.9395L12.6376 68.1431L12.935 68.3241L13.2517 68.4792L13.5814 68.6117L13.924 68.7216L14.2763 68.8057L14.6383 68.8671L15.0003 68.9026L15.3655 68.9156L15.7275 68.9026L16.0863 68.8671L16.4386 68.8089L16.7812 68.7249L17.1109 68.6182L17.4244 68.4857L17.5569 68.4307L17.6829 68.392L17.8025 68.3661L17.9124 68.3499L18.2938 68.3208L18.3746 68.3047L18.449 68.2788L18.4845 68.2627L18.5201 68.24L18.5556 68.2174L18.5879 68.1851L18.6203 68.1528L18.6493 68.1108L18.7075 68.0138L18.7657 67.891L18.8174 67.7358L19.0921 66.7856L19.3539 65.7643L19.5673 64.7364L19.6448 64.2419L19.6933 63.7733L19.7095 63.2852L19.6966 62.7778L19.5899 61.7209L19.4024 60.6317L19.1503 59.5554L18.8562 58.5211L18.5427 57.5676L18.2324 56.7337L17.9447 56.055L17.321 58.576L17.0107 60.0014L16.7553 61.5334L16.723 61.834L16.7036 62.1475L16.6939 62.474L16.7004 62.8101L16.7165 63.1527L16.7456 63.505L16.8361 64.229L16.9751 65.0112L17.1335 65.6899L17.321 66.3525L17.5504 67.0991L17.9254 68.3241L17.3727 67.5645L16.0313 65.6738ZM12.6021 56.9923L12.3209 56.3233L12.0268 55.693L11.7262 55.1209L11.5775 54.8688L11.4288 54.6426L11.1638 54.3L10.8697 53.9768L10.5529 53.6729L10.2136 53.3885L9.85479 53.1235L9.48633 52.8843L9.10817 52.6645L8.72678 52.4706L8.34539 52.3122L7.96724 52.1732L7.59555 52.0601L7.23678 51.9696L6.89095 51.905L6.56127 51.8727L6.40613 51.8662H6.25745L6.11524 51.8759L5.97949 51.8953L6.14756 52.6096L6.36088 53.3594L6.61622 54.1287L6.91034 54.9076L7.23032 55.6801L7.57615 56.4364L7.94138 57.1572L8.32277 57.8359L8.51023 58.13L8.72678 58.4047L8.96919 58.6633L9.23422 58.9057L9.52188 59.1255L9.8257 59.3291L10.1457 59.5101L10.4786 59.6717L10.8212 59.8107L11.1703 59.9271L11.5226 60.0208L11.8781 60.0887L12.2304 60.1307L12.5795 60.1469L12.9253 60.1372L13.2582 60.1016L13.4004 60.0854H13.5329L13.6525 60.0919L13.7624 60.1081L14.1373 60.1889L14.2181 60.1986L14.2989 60.1953L14.3377 60.1889L14.3765 60.1792L14.4153 60.163L14.4541 60.1469L14.4929 60.121L14.5316 60.0919L14.6124 60.0143L14.6965 59.9109L14.7837 59.7784L15.2815 58.9413L15.7857 58.0298L16.2414 57.099L16.4354 56.6465L16.597 56.2069L16.7295 55.7415L16.8426 55.247L16.9977 54.1965L17.0818 53.0912L17.1012 51.9793L17.0721 50.8998L17.001 49.8914L16.904 48.9961L16.7941 48.2592L15.5756 50.5152L14.9292 51.7983L14.3086 53.2043L14.2052 53.4855L14.1082 53.7828L14.021 54.0931L13.9466 54.4196L13.8788 54.7589L13.8206 55.1048L13.7301 55.8288L13.6719 56.6239L13.659 57.322L13.6784 58.0169L13.7172 58.8023L13.7818 60.0887L13.4327 59.1998L12.6021 56.9923ZM11.3545 47.1473L11.264 46.4201L11.1541 45.722L11.0216 45.082L10.9472 44.7943L10.8664 44.5293L10.7081 44.1188L10.5141 43.7148L10.2911 43.3205L10.0455 42.9423L9.77722 42.5771L9.48956 42.2281L9.18897 41.9016L8.87546 41.5946L8.55225 41.3231L8.22904 41.071L7.9026 40.8415L7.58262 40.6411L7.2691 40.473L6.96528 40.334L6.6744 40.2338L6.53541 40.1983L6.39967 40.1724L6.36734 40.9094L6.37058 41.6948L6.40613 42.5125L6.474 43.3496L6.57097 44.1899L6.70025 45.0206L6.85216 45.8254L7.03316 46.5946L7.13335 46.934L7.26587 47.2669L7.42748 47.5933L7.61817 47.9101L7.83149 48.2139L8.06743 48.5048L8.32277 48.7795L8.5975 49.0381L8.88839 49.2805L9.18897 49.5003L9.50249 49.7039L9.82247 49.8817L10.1489 50.0336L10.4786 50.1596L10.8115 50.2598L11.1412 50.3309L11.2801 50.36L11.4062 50.4021L11.5193 50.4473L11.6195 50.499L11.9557 50.6929L12.03 50.7285L12.1076 50.7479L12.1464 50.7543L12.1851 50.7576H12.2272L12.2692 50.7511L12.3112 50.7382L12.3564 50.7253L12.4566 50.6768L12.5633 50.6024L12.6829 50.5055L13.3875 49.8623L14.1147 49.1512L14.467 48.7828L14.8031 48.4078L15.1102 48.0329L15.3849 47.6645L15.6403 47.2604L15.8794 46.8241L16.3158 45.8674L16.6939 44.8396L17.0139 43.7827L17.2757 42.7387L17.4826 41.7529L17.6312 40.8673L17.725 40.1272L15.9505 41.8984L14.9874 42.9197L14.0113 44.0671L13.8367 44.2998L13.6622 44.5552L13.4974 44.8267L13.3358 45.1143L13.1774 45.4149L13.0255 45.7317L12.7443 46.3942L12.476 47.1344L12.2756 47.8002L12.1043 48.4692L11.9298 49.232L11.6421 50.4829L11.5516 49.5261L11.3545 47.1473ZM12.3112 37.3573L12.4082 36.63L12.476 35.9254L12.5083 35.2726V34.972L12.4954 34.694L12.4437 34.2512L12.3597 33.8084L12.2465 33.3656L12.1043 32.9261L11.9363 32.4962L11.7456 32.076L11.5355 31.672L11.3125 31.2841L11.0733 30.9254L10.8244 30.5892L10.5691 30.2757L10.3105 29.9881L10.0519 29.7327L9.79338 29.5097L9.53804 29.3287L9.41199 29.2544L9.28917 29.1897L9.07262 29.8879L8.87869 30.6442L8.70739 31.4425L8.56518 32.2667L8.44882 33.1038L8.36155 33.9409L8.30661 34.7651L8.28722 35.557L8.30014 35.9125L8.34216 36.2713L8.4165 36.63L8.51993 36.9888L8.64921 37.3443L8.80435 37.6934L8.98212 38.0328L9.17928 38.3625L9.39906 38.6792L9.635 38.983L9.88388 39.2674L10.1489 39.5325L10.4236 39.7749L10.7113 39.9947L11.0022 40.1886L11.3028 40.3534L11.4321 40.4245L11.5419 40.4989L11.6389 40.5797L11.7229 40.6572L11.9977 40.9449L12.0623 40.9999L12.1302 41.0419L12.1657 41.058L12.2045 41.0742L12.2433 41.0839L12.2853 41.0904L12.3306 41.0936L12.3791 41.0904L12.4857 41.0742L12.6053 41.0354L12.7475 40.974L13.5879 40.5635L14.467 40.0916L14.8969 39.8395L15.3138 39.5777L15.7049 39.3095L16.0604 39.0347L16.4063 38.7212L16.7456 38.3722L17.405 37.5803L18.0256 36.7012L18.5976 35.78L19.1115 34.8524L19.5576 33.9636L19.926 33.1555L20.2008 32.4703L18.0514 33.6533L16.8652 34.3546L16.2544 34.7457L15.637 35.1724L15.4075 35.3469L15.1813 35.5408L14.9518 35.7509L14.7223 35.9804L14.4961 36.226L14.2731 36.4846L13.8367 37.0405L13.3907 37.674L13.0319 38.2526L12.7023 38.8473L12.3403 39.5292L11.7488 40.6508L11.9007 39.7005L12.3112 37.3573ZM16.1024 27.7935L16.3449 27.1664L16.5582 26.5523L16.7295 25.9738L16.7941 25.7055L16.8426 25.4534L16.8911 25.0429L16.9105 24.6228L16.904 24.1961L16.8685 23.7695L16.8135 23.3396L16.7327 22.9162L16.6325 22.5025L16.5162 22.0985L16.3772 21.7171L16.2253 21.3519L16.0637 21.006L15.8956 20.6861L15.7178 20.3887L15.5336 20.1269L15.3429 19.8974L15.2459 19.8005L15.149 19.71L14.8064 20.2821L14.4702 20.9123L14.147 21.5846L13.84 22.2892L13.5555 23.0132L13.3002 23.7404L13.074 24.4644L12.8865 25.169L12.8186 25.4922L12.7831 25.8251L12.7701 26.1645L12.7863 26.5136L12.8251 26.8626L12.8897 27.2149L12.977 27.564L13.0837 27.9098L13.2097 28.2492L13.3552 28.5789L13.52 28.8988L13.701 29.2027L13.8949 29.4903L14.1018 29.7586L14.3248 30.0042L14.5575 30.2272L14.6577 30.3242L14.7417 30.4179L14.8096 30.5117L14.871 30.6054L15.0552 30.9318L15.1005 30.9965L15.1522 31.0547L15.1813 31.0773L15.2104 31.0999L15.2459 31.1193L15.2815 31.1355L15.3203 31.1484L15.3655 31.1581L15.4625 31.171L15.5821 31.1678L15.7211 31.1484L16.5614 30.99L17.4502 30.7896L17.8898 30.67L18.3197 30.5408L18.7269 30.3985L19.1051 30.2434L19.4832 30.0495L19.8614 29.82L20.6242 29.277L21.3676 28.6467L22.0818 27.9615L22.7412 27.2602L23.3327 26.575L23.8336 25.9447L24.228 25.3985L22.0463 25.9156L20.831 26.2485L20.2008 26.4457L19.5576 26.6719L19.3152 26.7721L19.0695 26.8885L18.8174 27.021L18.5653 27.1664L18.31 27.328L18.0514 27.5058L17.7961 27.6933L17.5407 27.8937L17.0074 28.3494L16.5614 28.7793L16.1348 29.2285L15.6661 29.7489L14.8969 30.6054L15.2362 29.7909L16.1024 27.7935ZM21.4904 20.2562L21.9073 19.7455L22.2887 19.2381L22.6216 18.75L22.7638 18.5173L22.8834 18.2943L23.0515 17.9226L23.1937 17.5348L23.3133 17.1275L23.407 16.7073L23.4781 16.2839L23.5298 15.8541L23.5589 15.4274L23.5654 15.004L23.546 14.5935L23.5104 14.196L23.462 13.8114L23.3941 13.4494L23.3133 13.1068L23.2163 12.7933L23.1064 12.5121L23.0418 12.386L22.9771 12.2664L22.4826 12.6898L21.9784 13.1682L21.471 13.695L20.9732 14.2542L20.4916 14.8424L20.0327 15.4436L19.6061 16.0512L19.2182 16.6556L19.0598 16.9368L18.9241 17.2406L18.8142 17.5606L18.7269 17.8935L18.659 18.2394L18.617 18.5949L18.5944 18.9537V19.3189L18.6138 19.6841L18.6558 20.0493L18.7172 20.4081L18.798 20.7572L18.8982 21.0965L19.0146 21.423L19.1536 21.7365L19.3087 22.0274L19.3733 22.1534L19.4251 22.273L19.4638 22.3862L19.4929 22.4928L19.5705 22.8645L19.5931 22.9421L19.6254 23.0132L19.6448 23.0455L19.6675 23.0778L19.6933 23.1069L19.7256 23.136L19.758 23.1619L19.7967 23.1877L19.8872 23.233L20.0004 23.2685L20.1361 23.3008L20.9797 23.4431L21.8815 23.5594L22.334 23.6014L22.78 23.6273L23.2066 23.6337L23.6106 23.6176L24.0243 23.5659L24.4542 23.4786L25.3333 23.2265L26.2286 22.8871L27.1045 22.4863L27.9352 22.05L28.698 21.6072L29.3605 21.1806L29.8938 20.8024L27.6734 20.5374L26.4258 20.4307L25.7697 20.4016L25.0942 20.3919L24.8356 20.4016L24.5673 20.4243L24.2926 20.463L24.0082 20.5148L23.7173 20.5826L23.4232 20.6602L23.1258 20.7507L22.8252 20.8509L22.182 21.0965L21.6326 21.3454L21.0961 21.6266L20.4949 21.9563L19.5156 22.4993L20.0779 21.8464L21.4904 20.2562ZM27.7057 15.3725L28.1614 14.9943L28.5848 14.6097L28.963 14.2315L29.1246 14.0505L29.2701 13.8728L29.4801 13.5722L29.6708 13.249L29.8421 12.9064L29.994 12.5476L30.1266 12.1792L30.2397 11.8042L30.3334 11.4261L30.4078 11.0479L30.4562 10.6762L30.4853 10.311L30.5015 9.9587V9.61933L30.4821 9.29935L30.4465 8.99877L30.3916 8.72404L30.356 8.60122L30.3173 8.48163L29.8066 8.76929L29.2765 9.10543L28.7368 9.48358L28.2002 9.89083L27.6734 10.3272L27.1659 10.7829L26.6844 11.2483L26.2416 11.717L26.0541 11.94L25.886 12.1856L25.7341 12.4539L25.6016 12.7351L25.4885 13.0357L25.3948 13.346L25.3172 13.6659L25.2558 13.9924L25.217 14.322L25.1944 14.6582L25.1911 14.9911L25.2073 15.3208L25.2428 15.644L25.2978 15.9607L25.3689 16.2645L25.4626 16.5554L25.5014 16.6783L25.5273 16.7978L25.5467 16.9045L25.5531 17.0079L25.5661 17.357L25.5758 17.4313L25.5919 17.4992L25.6048 17.5348L25.621 17.5671L25.6372 17.5994L25.6598 17.6285L25.6856 17.6608L25.7147 17.6899L25.7891 17.7448L25.886 17.7998L26.0024 17.8547L26.7361 18.1392L27.5279 18.4139L27.9287 18.5367L28.323 18.6434L28.7077 18.7274L29.0729 18.7888L29.4543 18.8179L29.8518 18.8211L30.6825 18.7597L31.539 18.6207L32.389 18.4268L33.2068 18.1909L33.9598 17.9355L34.6224 17.677L35.1622 17.4378L33.2132 16.7849L32.1111 16.4552L31.5261 16.3033L30.9184 16.1708L30.6857 16.132L30.4433 16.1029L30.188 16.0868L29.9262 16.0803L29.6547 16.0835L29.3767 16.0997L29.0955 16.1223L28.8079 16.1579L28.1905 16.2581L27.6572 16.3809L27.1336 16.5296L26.5422 16.717L25.5758 17.0209L26.1834 16.5393L27.7057 15.3725ZM34.422 11.8204L34.8066 11.4972L35.1686 11.1707L35.4854 10.8508L35.6244 10.6956L35.7472 10.5469L35.925 10.2916L36.0866 10.0169L36.2288 9.72922L36.3581 9.42541L36.4712 9.11189L36.5649 8.79191L36.6457 8.47193L36.7071 8.15196L36.7491 7.83844L36.775 7.52816L36.7912 7.23081V6.94315L36.775 6.67165L36.7427 6.41631L36.6974 6.18684L36.6683 6.08018L36.6328 5.97998L36.1997 6.22239L35.7504 6.50681L35.2947 6.82679L34.839 7.17263L34.3929 7.54432L33.9598 7.92894L33.5526 8.32326L33.1777 8.72081L33.0193 8.9115L32.8771 9.11836L32.7478 9.3446L32.6347 9.58378L32.5409 9.83588L32.4569 10.0977L32.3923 10.3692L32.3438 10.6471L32.3082 10.9283L32.2921 11.2128L32.2888 11.494L32.3018 11.7751L32.3341 12.0499L32.3793 12.3181L32.444 12.5767L32.5215 12.8223L32.5539 12.929L32.5765 13.026L32.5894 13.1197L32.5959 13.2037L32.6056 13.5011L32.612 13.5625L32.6282 13.6239L32.6379 13.6498L32.6508 13.6789L32.667 13.7047L32.6864 13.7306L32.709 13.7564L32.7349 13.7823L32.7963 13.8308L32.8771 13.876L32.9773 13.9213L33.5978 14.1637L34.2701 14.3964L34.6095 14.4998L34.9424 14.5871L35.2688 14.6614L35.5791 14.7131L35.9023 14.739L36.2385 14.7422L36.9431 14.6905L37.6671 14.5709L38.3878 14.4061L39.0827 14.2057L39.7227 13.9891L40.2818 13.7694L40.7408 13.5657L39.0892 13.013L38.1519 12.7351L37.6574 12.6058L37.1435 12.4927L36.9463 12.4604L36.7394 12.4345L36.5229 12.4216L36.2999 12.4151L36.0704 12.4216L35.8345 12.4345L35.3529 12.483L34.8325 12.567L34.5998 12.6187L34.38 12.6737L33.934 12.7997L33.433 12.9581L32.6153 13.2134L33.1292 12.8062L34.422 11.8204Z" fill="url(#paint1_linear)"/>
<defs>
<linearGradient id="paint0_linear" x1="30.2207" y1="45.6349" x2="65.7836" y2="45.6349" gradientUnits="userSpaceOnUse">
<stop stop-color="#A55906"/>
<stop offset="1" stop-color="#FECD51"/>
</linearGradient>
<linearGradient id="paint1_linear" x1="3.25806" y1="51.126" x2="92.7357" y2="44.8687" gradientUnits="userSpaceOnUse">
<stop stop-color="#A55906"/>
<stop offset="1" stop-color="#FECD51"/>
</linearGradient>
</defs>
</svg>
