<svg width="40" height="40" viewBox="0 0 40 40" fill="none" xmlns="http://www.w3.org/2000/svg">
<path d="M29.6667 33.0285L26.0467 34.9251C25.9392 34.981 25.8184 35.006 25.6976 34.9972C25.5768 34.9884 25.4608 34.9462 25.3627 34.8753C25.2645 34.8044 25.1879 34.7077 25.1415 34.5958C25.0951 34.4839 25.0808 34.3614 25.1 34.2418L25.7917 30.2235L22.8633 27.3785C22.7759 27.294 22.714 27.1866 22.6847 27.0686C22.6554 26.9506 22.6599 26.8268 22.6976 26.7112C22.7353 26.5956 22.8048 26.493 22.898 26.415C22.9913 26.337 23.1046 26.2868 23.225 26.2701L27.2717 25.6835L29.0817 22.0285C29.1358 21.9196 29.2192 21.828 29.3226 21.764C29.4259 21.6999 29.5451 21.666 29.6667 21.666C29.7882 21.666 29.9074 21.6999 30.0108 21.764C30.1141 21.828 30.1975 21.9196 30.2517 22.0285L32.0617 25.6835L36.1083 26.2701C36.2284 26.2874 36.3412 26.3379 36.4341 26.416C36.5269 26.494 36.5961 26.5965 36.6337 26.7119C36.6713 26.8272 36.676 26.9507 36.647 27.0685C36.6181 27.1863 36.5568 27.2937 36.47 27.3785L33.5417 30.2235L34.2317 34.2401C34.2524 34.3599 34.2391 34.4831 34.1933 34.5957C34.1475 34.7083 34.0711 34.8058 33.9727 34.8771C33.8742 34.9485 33.7578 34.9908 33.6365 34.9993C33.5153 35.0078 33.3941 34.9821 33.2867 34.9251L29.6667 33.0285Z" stroke="#0D0D0D" stroke-width="1.5" stroke-linecap="round" stroke-linejoin="round"/>
<path d="M10.3333 33.0285L6.71334 34.9251C6.60591 34.981 6.48506 35.006 6.36427 34.9972C6.24348 34.9884 6.12752 34.9462 6.02932 34.8753C5.93113 34.8044 5.85456 34.7077 5.80818 34.5958C5.7618 34.4839 5.74743 34.3614 5.76667 34.2418L6.45834 30.2235L3.53 27.3785C3.4426 27.294 3.38071 27.1866 3.35141 27.0686C3.3221 26.9506 3.32656 26.8268 3.36428 26.7112C3.40199 26.5956 3.47144 26.493 3.56469 26.415C3.65795 26.337 3.77125 26.2868 3.89167 26.2701L7.93834 25.6835L9.74834 22.0285C9.80247 21.9196 9.8859 21.828 9.98925 21.764C10.0926 21.6999 10.2118 21.666 10.3333 21.666C10.4549 21.666 10.5741 21.6999 10.6774 21.764C10.7808 21.828 10.8642 21.9196 10.9183 22.0285L12.7283 25.6835L16.775 26.2701C16.8951 26.2874 17.0079 26.3379 17.1008 26.416C17.1936 26.494 17.2628 26.5965 17.3004 26.7119C17.338 26.8272 17.3426 26.9507 17.3137 27.0685C17.2848 27.1863 17.2234 27.2937 17.1367 27.3785L14.2083 30.2235L14.8983 34.2401C14.919 34.3599 14.9058 34.4831 14.86 34.5957C14.8142 34.7083 14.7377 34.8058 14.6393 34.8771C14.5409 34.9485 14.4245 34.9908 14.3032 34.9993C14.1819 35.0078 14.0607 34.9821 13.9533 34.9251L10.3333 33.0285Z" stroke="#0D0D0D" stroke-width="1.5" stroke-linecap="round" stroke-linejoin="round"/>
<path d="M20 16.3615L16.38 18.2581C16.2726 18.314 16.1517 18.339 16.0309 18.3302C15.9101 18.3214 15.7942 18.2792 15.696 18.2083C15.5978 18.1375 15.5212 18.0407 15.4748 17.9288C15.4285 17.8169 15.4141 17.6944 15.4333 17.5748L16.125 13.5565L13.1967 10.7115C13.1093 10.627 13.0474 10.5196 13.0181 10.4016C12.9888 10.2836 12.9932 10.1598 13.0309 10.0442C13.0686 9.92863 13.1381 9.82599 13.2313 9.748C13.3246 9.67001 13.4379 9.61981 13.5583 9.60313L17.605 9.01646L19.415 5.36146C19.4691 5.2526 19.5526 5.16101 19.6559 5.09698C19.7593 5.03295 19.8784 4.99902 20 4.99902C20.1216 4.99902 20.2407 5.03295 20.3441 5.09698C20.4474 5.16101 20.5309 5.2526 20.585 5.36146L22.395 9.01646L26.4417 9.60313C26.5617 9.6204 26.6746 9.67093 26.7674 9.74899C26.8603 9.82706 26.9294 9.92955 26.967 10.0449C27.0047 10.1602 27.0093 10.2837 26.9803 10.4015C26.9514 10.5193 26.8901 10.6267 26.8033 10.7115L23.875 13.5565L24.565 17.5731C24.5857 17.6929 24.5724 17.8161 24.5266 17.9287C24.4808 18.0413 24.4044 18.1388 24.306 18.2101C24.2076 18.2815 24.0911 18.3238 23.9699 18.3323C23.8486 18.3408 23.7274 18.3151 23.62 18.2581L20 16.3615Z" stroke="#0D0D0D" stroke-width="1.5" stroke-linecap="round" stroke-linejoin="round"/>
</svg>
