<svg width="40" height="40" viewBox="0 0 40 40" fill="none" xmlns="http://www.w3.org/2000/svg">
<path d="M11.6666 31.6667C13.5076 31.6667 15 30.1743 15 28.3333C15 26.4924 13.5076 25 11.6666 25C9.8257 25 8.33331 26.4924 8.33331 28.3333C8.33331 30.1743 9.8257 31.6667 11.6666 31.6667Z" stroke="#0D0D0D" stroke-width="1.5" stroke-linecap="round" stroke-linejoin="round"/>
<path d="M28.3333 31.6667C30.1743 31.6667 31.6667 30.1743 31.6667 28.3333C31.6667 26.4924 30.1743 25 28.3333 25C26.4924 25 25 26.4924 25 28.3333C25 30.1743 26.4924 31.6667 28.3333 31.6667Z" stroke="#0D0D0D" stroke-width="1.5" stroke-linecap="round" stroke-linejoin="round"/>
<path d="M8.33331 28.3335H4.99998V21.6668M3.33331 8.3335H21.6666V28.3335M15 28.3335H25M31.6666 28.3335H35V18.3335M35 18.3335H21.6666M35 18.3335L30 10.0002H21.6666" stroke="#0D0D0D" stroke-width="1.5" stroke-linecap="round" stroke-linejoin="round"/>
<path d="M5 15H11.6667" stroke="#0D0D0D" stroke-width="1.5" stroke-linecap="round" stroke-linejoin="round"/>
</svg>
